<?xml version="1.0" encoding="utf-8"?>
<!-- Generator: Adobe Illustrator 23.0.3, SVG Export Plug-In . SVG Version: 6.00 Build 0)  -->
<svg version="1.1" id="Layer_1" xmlns="http://www.w3.org/2000/svg" xmlns:xlink="http://www.w3.org/1999/xlink" x="0px" y="0px"
	 viewBox="0 0 72.6 72.6" style="enable-background:new 0 0 72.6 72.6;" xml:space="preserve">
<style type="text/css">
	.st0{fill:#D4AA00;}
</style>
<title>Asset 3</title>
<g>
	<g id="Layer_1-2">
		<path class="st0" d="M36.3,0C16.2,0,0,16.3,0,36.3s16.3,36.3,36.3,36.3s36.3-16.3,36.3-36.3c0,0,0,0,0,0C72.6,16.3,56.3,0,36.3,0z
			 M47.3,21H42c-1.1,0.1-1.9,0.9-2.1,1.9v5.4h7.4c-0.3,4.2-0.9,8-0.9,8h-6.6v23.5h-9.8V36.3h-4.8v-7.9h4.8v-6.5
			c0-1.2-0.2-9.1,10-9.1h7.2V21z"/>
	</g>
</g>
</svg>
