<?xml version="1.0" encoding="utf-8"?>
<!-- Generator: Adobe Illustrator 23.0.3, SVG Export Plug-In . SVG Version: 6.00 Build 0)  -->
<svg version="1.1" id="Layer_1" xmlns="http://www.w3.org/2000/svg" xmlns:xlink="http://www.w3.org/1999/xlink" x="0px" y="0px"
	 viewBox="0 0 72.6 72.6" style="enable-background:new 0 0 72.6 72.6;" xml:space="preserve">
<style type="text/css">
	.st0{fill:#D4AA00;}
</style>
<title>Asset 1</title>
<g>
	<g id="Layer_1-2">
		<path class="st0" d="M36.3,0C16.2,0,0,16.3,0,36.3s16.3,36.3,36.3,36.3s36.3-16.3,36.3-36.3c0,0,0,0,0,0C72.6,16.3,56.3,0,36.3,0z
			 M25.8,54.9h-8.9V28.3h8.9V54.9z M21.3,24.6L21.3,24.6c-2.5,0.2-4.7-1.7-4.9-4.3c0-0.1,0-0.2,0-0.3c0-2.6,2-4.6,5-4.6
			c2.5-0.2,4.7,1.7,4.9,4.2c0,0.1,0,0.2,0,0.4C26.3,22.6,24.4,24.6,21.3,24.6z M57.6,54.9h-8.8V40.6c0-3.6-1.3-6-4.5-6
			c-2,0-3.9,1.3-4.5,3.2c-0.2,0.7-0.3,1.4-0.3,2.1v14.9h-8.8c0,0,0.1-24.1,0-26.6h8.8V32c1.6-2.8,4.7-4.5,8-4.4
			c5.8,0,10.2,3.8,10.2,12L57.6,54.9z"/>
	</g>
</g>
</svg>
