<?xml version="1.0" encoding="utf-8"?>
<!-- Generator: Adobe Illustrator 23.0.3, SVG Export Plug-In . SVG Version: 6.00 Build 0)  -->
<svg version="1.1" id="Layer_1" xmlns="http://www.w3.org/2000/svg" xmlns:xlink="http://www.w3.org/1999/xlink" x="0px" y="0px"
	 viewBox="0 0 72.6 72.6" style="enable-background:new 0 0 72.6 72.6;" xml:space="preserve">
<style type="text/css">
	.st0{fill:#D4AA00;}
</style>
<title>Asset 4</title>
<g>
	<g id="Layer_1-2">
		<circle class="st0" cx="36.3" cy="36.3" r="9.8"/>
		<path class="st0" d="M49.1,22.1c-0.6,0-1,0.4-1,1s0.4,1,1,1s1-0.4,1-1S49.6,22.1,49.1,22.1z"/>
		<path class="st0" d="M46.8,16.1h-21c-5.3,0-9.7,4.3-9.7,9.7v21c0,5.3,4.3,9.7,9.7,9.7h21c5.3,0,9.7-4.3,9.7-9.7v-21
			C56.5,20.5,52.1,16.2,46.8,16.1z M36.3,48.8c-6.9,0-12.5-5.6-12.5-12.5s5.6-12.5,12.5-12.5s12.5,5.6,12.5,12.5
			C48.8,43.2,43.2,48.8,36.3,48.8z M49.1,26.8c-2,0-3.7-1.7-3.7-3.7s1.7-3.7,3.7-3.7c2,0,3.7,1.7,3.7,3.7l0,0
			C52.8,25.1,51.1,26.8,49.1,26.8L49.1,26.8z"/>
		<path class="st0" d="M36.3,0C16.2,0,0,16.3,0,36.3s16.3,36.3,36.3,36.3s36.3-16.3,36.3-36.3c0,0,0,0,0,0C72.6,16.3,56.3,0,36.3,0z
			 M59.1,46.8c0,6.8-5.5,12.3-12.4,12.4h-21c-6.8,0-12.3-5.6-12.3-12.4v-21c0-6.8,5.6-12.3,12.4-12.3h21c6.8,0,12.3,5.6,12.3,12.4
			V46.8z"/>
	</g>
</g>
</svg>
