<svg xmlns="http://www.w3.org/2000/svg" viewBox="0 0 53.98 72.07"><defs><style>.cls-1{isolation:isolate;}.cls-2{fill:#31a349;mix-blend-mode:multiply;}.cls-3{fill:#f2c318;}</style></defs><title>Asset 6</title><g class="cls-1"><g id="Layer_2" data-name="Layer 2"><g id="Layer_1-2" data-name="Layer 1"><path class="cls-2" d="M17.91,49.48a29.67,29.67,0,0,0-3.89,20c8.94-6,14.69-15.4,14.69-25.9a28.45,28.45,0,0,0-.32-4.15A28.94,28.94,0,0,0,17.91,49.48Z"/><path class="cls-2" d="M45.78,34.94a37.86,37.86,0,0,0-6.2.51,33.88,33.88,0,0,0-9.34,2.95,30.25,30.25,0,0,1,.44,5.15c0,10.48-5.36,19.88-13.82,26.29,5.85-1.11,15.91-4.74,26.37-16.21a40.77,40.77,0,0,0,9.58-18A40.59,40.59,0,0,0,45.78,34.94Z"/><path class="cls-3" d="M29.84,36.42a36.07,36.07,0,0,1,9.42-2.93,41.43,41.43,0,0,1,14,.15C56.56,15.89,47.69,0,47.69,0S30.51.42,17.09,17.42A34.3,34.3,0,0,1,29.84,36.42Z"/><path class="cls-2" d="M15.89,19A62,62,0,0,0,9.26,30.6C3.34,44.86,8.24,63,11.92,68.67a31.52,31.52,0,0,1,4.3-20.22A31.1,31.1,0,0,1,28,37.33,32.14,32.14,0,0,0,15.89,19Z"/><path class="cls-2" d="M53.2,40.73S49.28,62.58,18.3,72.05C18.3,72.05,51.42,74.1,53.2,40.73Z"/><path class="cls-2" d="M11.55,21S-2.87,37.87,9.43,67.83C9.43,67.83-13.14,43.5,11.55,21Z"/></g></g></g></svg>