<?xml version="1.0" encoding="utf-8"?>
<!-- Generator: Adobe Illustrator 23.0.3, SVG Export Plug-In . SVG Version: 6.00 Build 0)  -->
<svg version="1.1" id="Layer_1" xmlns="http://www.w3.org/2000/svg" xmlns:xlink="http://www.w3.org/1999/xlink" x="0px" y="0px"
	 viewBox="0 0 72.6 72.6" style="enable-background:new 0 0 72.6 72.6;" xml:space="preserve">
<style type="text/css">
	.st0{fill:#D4AA00;}
</style>
<title>Asset 2</title>
<g>
	<g id="Layer_1-2">
		<path class="st0" d="M36.3,0C16.2,0,0,16.3,0,36.3s16.3,36.3,36.3,36.3s36.3-16.3,36.3-36.3c0,0,0,0,0,0C72.6,16.3,56.3,0,36.3,0z
			 M54.2,28.6c0,0.4,0,0.7,0,1.1c0,11.5-8.8,24.9-24.9,24.9c-4.7,0-9.4-1.4-13.4-3.9c0.7,0.1,1.4,0.1,2.1,0.1
			c3.9,0,7.7-1.3,10.8-3.7c-3.7-0.1-7-2.5-8.1-6.1c0.5,0.1,1.1,0.2,1.6,0.2c0.8,0,1.5-0.1,2.3-0.3c-4.1-0.8-7-4.4-7-8.6v-0.1
			c1.2,0.7,2.6,1,4,1.1c-2.4-1.6-3.9-4.3-3.9-7.3c0-1.6,0.4-3.1,1.2-4.4c4.4,5.5,11,8.8,18,9.1c-0.1-0.7-0.2-1.3-0.2-2
			c0-4.8,3.8-8.7,8.7-8.8c2.4,0,4.8,1,6.4,2.8c2-0.4,3.8-1.1,5.5-2.1c-0.6,2-2,3.7-3.8,4.8c1.7-0.2,3.4-0.7,5-1.4
			C57.4,25.8,55.9,27.4,54.2,28.6z"/>
	</g>
</g>
</svg>
