<svg xmlns="http://www.w3.org/2000/svg" viewBox="0 0 478.03 357.36"><defs><style>.cls-1{isolation:isolate;}.cls-2{fill:#31a349;mix-blend-mode:multiply;}.cls-3{fill:#f2c318;}.cls-4,.cls-5{fill:none;stroke:#266338;stroke-miterlimit:10;}.cls-4{stroke-width:9px;}.cls-6{fill:#353535;}</style></defs><title>Asset 5</title><g class="cls-1"><g id="Layer_2" data-name="Layer 2"><g id="Layer_1-2" data-name="Layer 1"><path class="cls-2" d="M17.91,49.48a29.67,29.67,0,0,0-3.89,20c8.94-6,14.69-15.4,14.69-25.9a28.45,28.45,0,0,0-.32-4.15A28.94,28.94,0,0,0,17.91,49.48Z"/><path class="cls-2" d="M45.78,34.94a37.86,37.86,0,0,0-6.2.51,33.88,33.88,0,0,0-9.34,2.95,30.25,30.25,0,0,1,.44,5.15c0,10.48-5.36,19.88-13.82,26.29,5.85-1.11,15.91-4.74,26.37-16.21a40.77,40.77,0,0,0,9.58-18A40.59,40.59,0,0,0,45.78,34.94Z"/><path class="cls-3" d="M29.84,36.42a36.07,36.07,0,0,1,9.42-2.93,41.43,41.43,0,0,1,14,.15C56.56,15.89,47.69,0,47.69,0S30.51.42,17.09,17.42A34.3,34.3,0,0,1,29.84,36.42Z"/><path class="cls-2" d="M15.89,19A62,62,0,0,0,9.26,30.6C3.34,44.86,8.24,63,11.92,68.67a31.52,31.52,0,0,1,4.3-20.22A31.1,31.1,0,0,1,28,37.33,32.14,32.14,0,0,0,15.89,19Z"/><path class="cls-2" d="M53.2,40.73S49.28,62.58,18.3,72.05C18.3,72.05,51.42,74.1,53.2,40.73Z"/><path class="cls-2" d="M11.55,21S-2.87,37.87,9.43,67.83C9.43,67.83-13.14,43.5,11.55,21Z"/><polyline class="cls-4" points="469.6 317.72 469.6 348.27 438.89 348.27"/><polyline class="cls-5" points="462.42 319.45 462.42 340.92 440.29 340.92"/><polyline class="cls-5" points="477.53 321.89 477.53 356.86 441.53 356.86"/><path class="cls-6" d="M54.07,89.69H49.36V88H60.83v1.7H56.1v13.8h-2Z"/><path class="cls-6" d="M62.52,87.16h2v7h0A3.76,3.76,0,0,1,66,92.68a4.22,4.22,0,0,1,2.07-.57c1.5,0,3.89.91,3.89,4.75v6.63H70v-6.4c0-1.79-.67-3.31-2.58-3.31a2.89,2.89,0,0,0-2.71,2,2.32,2.32,0,0,0-.14,1v6.72h-2Z"/><path class="cls-6" d="M76.59,98.29a3.56,3.56,0,0,0,3.82,3.86,7.35,7.35,0,0,0,3.08-.57l.34,1.45a9,9,0,0,1-3.7.69c-3.42,0-5.47-2.26-5.47-5.61s2-6,5.22-6c3.63,0,4.6,3.19,4.6,5.24a8.31,8.31,0,0,1-.07.94Zm5.93-1.45c0-1.29-.53-3.29-2.8-3.29-2,0-2.94,1.89-3.11,3.29Z"/><path class="cls-6" d="M105.36,96.68c-.11-2.16-.25-4.76-.23-6.69h-.07c-.53,1.82-1.17,3.75-2,5.89l-2.74,7.52H98.85L96.35,96c-.74-2.18-1.36-4.18-1.8-6h0c-.05,1.93-.16,4.53-.3,6.85l-.42,6.65h-1.9L93,88h2.55l2.64,7.5c.65,1.9,1.18,3.61,1.57,5.22h.07c.39-1.57.94-3.27,1.63-5.22l2.76-7.5h2.55l1,15.5h-2Z"/><path class="cls-6" d="M113.44,89.23a1.26,1.26,0,0,1-2.51,0A1.23,1.23,0,0,1,112.19,88,1.2,1.2,0,0,1,113.44,89.23Zm-2.26,14.26V92.36h2v11.13Z"/><path class="cls-6" d="M126.36,87.16v13.45c0,1,0,2.12.09,2.88h-1.81l-.1-1.93h0a4.12,4.12,0,0,1-3.8,2.18c-2.69,0-4.76-2.28-4.76-5.66,0-3.7,2.28-6,5-6a3.73,3.73,0,0,1,3.36,1.7h0V87.16Zm-2,9.73a3.47,3.47,0,0,0-.1-.85,3,3,0,0,0-2.92-2.35c-2.09,0-3.33,1.84-3.33,4.3,0,2.26,1.1,4.12,3.29,4.12a3,3,0,0,0,3-2.42,3.41,3.41,0,0,0,.1-.87Z"/><path class="cls-6" d="M139.52,87.16v13.45c0,1,0,2.12.09,2.88h-1.82l-.09-1.93h0a4.11,4.11,0,0,1-3.79,2.18c-2.69,0-4.76-2.28-4.76-5.66,0-3.7,2.28-6,5-6a3.73,3.73,0,0,1,3.36,1.7h0V87.16Zm-2,9.73a3.46,3.46,0,0,0-.09-.85,3,3,0,0,0-2.92-2.35c-2.09,0-3.33,1.84-3.33,4.3,0,2.26,1.1,4.12,3.28,4.12a3,3,0,0,0,3-2.42,3.42,3.42,0,0,0,.09-.87Z"/><path class="cls-6" d="M143.06,87.16h2v16.33h-2Z"/><path class="cls-6" d="M149.8,98.29a3.56,3.56,0,0,0,3.82,3.86,7.39,7.39,0,0,0,3.08-.57L157,103a9,9,0,0,1-3.7.69c-3.43,0-5.47-2.26-5.47-5.61s2-6,5.22-6c3.63,0,4.6,3.19,4.6,5.24a8.31,8.31,0,0,1-.07.94Zm5.93-1.45c0-1.29-.53-3.29-2.8-3.29-2.05,0-3,1.89-3.11,3.29Z"/><path class="cls-6" d="M173.53,96.22h-6v5.59h6.71v1.68h-8.71V88h8.37v1.68h-6.37v4.9h6Z"/><path class="cls-6" d="M183.1,103.49l-.16-1.41h-.07a4.13,4.13,0,0,1-3.4,1.66,3.18,3.18,0,0,1-3.41-3.2c0-2.69,2.4-4.16,6.7-4.13v-.23a2.3,2.3,0,0,0-2.53-2.58,5.5,5.5,0,0,0-2.9.83l-.46-1.34a7,7,0,0,1,3.66-1c3.4,0,4.23,2.32,4.23,4.55v4.16a15.5,15.5,0,0,0,.18,2.67Zm-.3-5.68c-2.21,0-4.71.34-4.71,2.5a1.8,1.8,0,0,0,1.91,1.94,2.77,2.77,0,0,0,2.69-1.87,2,2,0,0,0,.11-.64Z"/><path class="cls-6" d="M187.93,101.42a5.33,5.33,0,0,0,2.67.8c1.47,0,2.16-.73,2.16-1.65s-.57-1.5-2.07-2c-2-.71-2.94-1.82-2.94-3.15,0-1.79,1.45-3.26,3.84-3.26a5.64,5.64,0,0,1,2.73.68l-.5,1.48a4.3,4.3,0,0,0-2.28-.65c-1.19,0-1.86.69-1.86,1.52s.67,1.33,2.11,1.89c1.94.73,2.93,1.7,2.93,3.35,0,2-1.52,3.34-4.17,3.34a6.31,6.31,0,0,1-3.12-.76Z"/><path class="cls-6" d="M199.94,89.16v3.2h2.89V93.9h-2.89v6c0,1.38.39,2.16,1.51,2.16a4.54,4.54,0,0,0,1.18-.14l.09,1.52a4.94,4.94,0,0,1-1.79.28,2.81,2.81,0,0,1-2.19-.85A4.16,4.16,0,0,1,198,100V93.9h-1.72V92.36H198V89.69Z"/><path class="cls-6" d="M210.36,95.83c0-1.31,0-2.44-.1-3.47H212l.07,2.18h.1a3.33,3.33,0,0,1,3.08-2.43,2.43,2.43,0,0,1,.57.06v1.91a3.34,3.34,0,0,0-.69-.07,2.83,2.83,0,0,0-2.71,2.6,5.36,5.36,0,0,0-.09.94v5.94h-2Z"/><path class="cls-6" d="M219,98.29a3.56,3.56,0,0,0,3.82,3.86,7.39,7.39,0,0,0,3.08-.57l.34,1.45a9,9,0,0,1-3.7.69c-3.43,0-5.47-2.26-5.47-5.61s2-6,5.22-6c3.63,0,4.6,3.19,4.6,5.24a8.31,8.31,0,0,1-.07.94Zm5.93-1.45c0-1.29-.53-3.29-2.8-3.29-2.05,0-3,1.89-3.11,3.29Z"/><path class="cls-6" d="M239.13,92.36c0,.8-.09,1.7-.09,3.06v6.46c0,2.55-.51,4.11-1.59,5.08a5.92,5.92,0,0,1-4,1.33,7.17,7.17,0,0,1-3.7-.92l.51-1.54a6.23,6.23,0,0,0,3.26.88c2.07,0,3.59-1.08,3.59-3.89v-1.24H237a4,4,0,0,1-3.54,1.86c-2.76,0-4.74-2.34-4.74-5.43,0-3.77,2.46-5.9,5-5.9A3.7,3.7,0,0,1,237.22,94h.05l.09-1.68ZM237,96.75a3,3,0,0,0-.11-.92,2.92,2.92,0,0,0-2.83-2.14c-1.93,0-3.31,1.63-3.31,4.21,0,2.18,1.1,4,3.29,4a2.94,2.94,0,0,0,2.8-2.07,3.33,3.33,0,0,0,.16-1.08Z"/><path class="cls-6" d="M244.7,89.23a1.26,1.26,0,0,1-2.51,0A1.23,1.23,0,0,1,243.45,88,1.2,1.2,0,0,1,244.7,89.23Zm-2.26,14.26V92.36h2v11.13Z"/><path class="cls-6" d="M258.08,97.83c0,4.12-2.85,5.91-5.54,5.91-3,0-5.34-2.21-5.34-5.73,0-3.72,2.44-5.9,5.52-5.9S258.08,94.43,258.08,97.83Zm-8.83.12c0,2.43,1.4,4.27,3.38,4.27S256,100.41,256,97.9c0-1.89-.94-4.28-3.33-4.28S249.25,95.83,249.25,98Z"/><path class="cls-6" d="M260.82,95.37c0-1.15,0-2.09-.09-3h1.79l.11,1.84h.05a4.09,4.09,0,0,1,3.68-2.09c1.54,0,3.93.91,3.93,4.73v6.65h-2V97.07c0-1.79-.67-3.29-2.58-3.29A2.88,2.88,0,0,0,263,95.85a3,3,0,0,0-.14,1v6.69h-2Z"/><path class="cls-6" d="M281.08,89.23a1.26,1.26,0,0,1-2.51,0A1.23,1.23,0,0,1,279.84,88,1.2,1.2,0,0,1,281.08,89.23Zm-2.25,14.26V92.36h2v11.13Z"/><path class="cls-6" d="M284.12,101.42a5.26,5.26,0,0,0,2.66.8c1.48,0,2.17-.73,2.17-1.65s-.58-1.5-2.07-2c-2-.71-2.95-1.82-2.95-3.15,0-1.79,1.45-3.26,3.84-3.26a5.65,5.65,0,0,1,2.74.68L290,94.27a4.26,4.26,0,0,0-2.27-.65c-1.2,0-1.87.69-1.87,1.52s.67,1.33,2.12,1.89c1.93.73,2.92,1.7,2.92,3.35,0,2-1.52,3.34-4.16,3.34a6.35,6.35,0,0,1-3.13-.76Z"/><path class="cls-6" d="M299.53,92.36l2.18,6.25a28,28,0,0,1,.9,2.85h.07c.25-.92.57-1.84.94-2.85l2.16-6.25h2.12l-4.37,11.13H301.6l-4.24-11.13Z"/><path class="cls-6" d="M310.89,98.29a3.56,3.56,0,0,0,3.82,3.86,7.39,7.39,0,0,0,3.08-.57l.34,1.45a9,9,0,0,1-3.7.69c-3.43,0-5.47-2.26-5.47-5.61s2-6,5.22-6c3.63,0,4.6,3.19,4.6,5.24a8.31,8.31,0,0,1-.07.94Zm5.93-1.45c0-1.29-.53-3.29-2.8-3.29-2,0-2.95,1.89-3.11,3.29Z"/><path class="cls-6" d="M321.47,95.83c0-1.31,0-2.44-.09-3.47h1.77l.06,2.18h.1a3.33,3.33,0,0,1,3.08-2.43,2.43,2.43,0,0,1,.57.06v1.91a3.34,3.34,0,0,0-.69-.07,2.84,2.84,0,0,0-2.71,2.6,5.36,5.36,0,0,0-.09.94v5.94h-2Z"/><path class="cls-6" d="M330.48,92.36l2.44,6.57c.25.74.53,1.61.71,2.28h.05c.21-.67.44-1.52.71-2.32l2.21-6.53h2.14l-3,7.93c-1.45,3.82-2.43,5.77-3.81,7a5.5,5.5,0,0,1-2.49,1.31l-.5-1.7a5.53,5.53,0,0,0,1.77-1,6.21,6.21,0,0,0,1.7-2.25,1.51,1.51,0,0,0,.16-.49,2,2,0,0,0-.14-.53l-4.11-10.25Z"/><path class="cls-6" d="M355.14,100.45c0,1.15,0,2.16.09,3h-1.79l-.12-1.82h-.05a4.16,4.16,0,0,1-3.67,2.07c-1.75,0-3.85-1-3.85-4.87V92.36h2v6.16c0,2.12.64,3.54,2.48,3.54a2.92,2.92,0,0,0,2.67-1.84,3,3,0,0,0,.18-1V92.36h2Z"/><path class="cls-6" d="M358.68,95.37c0-1.15,0-2.09-.09-3h1.79l.12,1.84h0a4.1,4.1,0,0,1,3.68-2.09c1.54,0,3.94.91,3.94,4.73v6.65h-2V97.07c0-1.79-.67-3.29-2.57-3.29a2.89,2.89,0,0,0-2.72,2.07,3,3,0,0,0-.14,1v6.69h-2Z"/><path class="cls-6" d="M373.88,89.23a1.19,1.19,0,0,1-1.28,1.24,1.2,1.2,0,0,1-1.22-1.24A1.23,1.23,0,0,1,372.64,88,1.2,1.2,0,0,1,373.88,89.23Zm-2.25,14.26V92.36h2v11.13Z"/><path class="cls-6" d="M384.78,101.76h0a4,4,0,0,1-3.63,2c-2.6,0-4.72-2.25-4.72-5.63,0-4.17,2.69-6,5-6A3.65,3.65,0,0,1,384.85,94h0l.07-1.68h1.91c-.05.94-.07,1.91-.07,3.06V108h-2Zm0-4.9a3.46,3.46,0,0,0-.09-.85,3,3,0,0,0-2.9-2.3c-2.09,0-3.35,1.78-3.35,4.28,0,2.21,1.06,4.14,3.29,4.14a3,3,0,0,0,2.89-2.21,3.07,3.07,0,0,0,.16-1Z"/><path class="cls-6" d="M399.64,100.45c0,1.15,0,2.16.09,3h-1.79l-.12-1.82h0a4.18,4.18,0,0,1-3.68,2.07c-1.75,0-3.84-1-3.84-4.87V92.36h2v6.16c0,2.12.65,3.54,2.49,3.54a2.91,2.91,0,0,0,2.66-1.84,2.82,2.82,0,0,0,.19-1V92.36h2Z"/><path class="cls-6" d="M404.31,98.29a3.57,3.57,0,0,0,3.82,3.86,7.35,7.35,0,0,0,3.08-.57l.35,1.45a9.12,9.12,0,0,1-3.71.69c-3.42,0-5.47-2.26-5.47-5.61s2-6,5.22-6c3.63,0,4.6,3.19,4.6,5.24a8.31,8.31,0,0,1-.07.94Zm5.93-1.45c0-1.29-.52-3.29-2.8-3.29-2.05,0-2.94,1.89-3.11,3.29Z"/><path class="cls-6" d="M422.21,89.23a1.26,1.26,0,0,1-2.51,0A1.23,1.23,0,0,1,421,88,1.2,1.2,0,0,1,422.21,89.23ZM420,103.49V92.36h2v11.13Z"/><path class="cls-6" d="M425.52,95.37c0-1.15,0-2.09-.09-3h1.79l.11,1.84h.05a4.09,4.09,0,0,1,3.68-2.09c1.54,0,3.93.91,3.93,4.73v6.65h-2V97.07c0-1.79-.67-3.29-2.58-3.29a2.88,2.88,0,0,0-2.71,2.07,3,3,0,0,0-.14,1v6.69h-2Z"/><path class="cls-6" d="M59,137.07a7.32,7.32,0,0,1-3.19.65c-3.36,0-5.54-2.28-5.54-5.68a5.65,5.65,0,0,1,6-5.91,6.86,6.86,0,0,1,2.8.57l-.46,1.57a4.63,4.63,0,0,0-2.34-.53c-2.56,0-3.94,1.88-3.94,4.21a3.82,3.82,0,0,0,3.87,4.16,5.8,5.8,0,0,0,2.48-.55Z"/><path class="cls-6" d="M70.86,134.45c0,1.15,0,2.16.09,3H69.16l-.11-1.82h0a4.18,4.18,0,0,1-3.68,2.07c-1.75,0-3.84-1-3.84-4.87v-6.51h2v6.16c0,2.12.65,3.54,2.49,3.54a2.93,2.93,0,0,0,2.67-1.84,3,3,0,0,0,.18-1v-6.83h2Z"/><path class="cls-6" d="M74.41,121.16h2v16.33h-2Z"/><path class="cls-6" d="M82.46,123.16v3.2h2.89v1.54H82.46v6c0,1.38.39,2.16,1.51,2.16a4.54,4.54,0,0,0,1.18-.14l.09,1.52a5,5,0,0,1-1.8.28,2.8,2.8,0,0,1-2.18-.85,4.16,4.16,0,0,1-.78-2.9V127.9H78.75v-1.54h1.73v-2.67Z"/><path class="cls-6" d="M97.13,134.45c0,1.15,0,2.16.09,3H95.43l-.12-1.82h0a4.19,4.19,0,0,1-3.68,2.07c-1.75,0-3.84-1-3.84-4.87v-6.51h2v6.16c0,2.12.64,3.54,2.48,3.54a2.92,2.92,0,0,0,2.67-1.84,2.82,2.82,0,0,0,.18-1v-6.83h2Z"/><path class="cls-6" d="M100.67,129.83c0-1.31,0-2.44-.09-3.47h1.77l.07,2.18h.09a3.35,3.35,0,0,1,3.08-2.43,2.58,2.58,0,0,1,.58.06v1.91a3.49,3.49,0,0,0-.69-.07,2.84,2.84,0,0,0-2.72,2.6,6.52,6.52,0,0,0-.09.94v5.94h-2Z"/><path class="cls-6" d="M109.27,132.29a3.57,3.57,0,0,0,3.82,3.86,7.35,7.35,0,0,0,3.08-.57l.35,1.45a9.12,9.12,0,0,1-3.71.69c-3.42,0-5.47-2.26-5.47-5.61s2-6,5.22-6c3.63,0,4.6,3.19,4.6,5.24a8.31,8.31,0,0,1-.07.94Zm5.94-1.45c0-1.29-.53-3.29-2.81-3.29-2.05,0-2.94,1.89-3.1,3.29Z"/><path class="cls-6" d="M118.27,140.32a34.52,34.52,0,0,0,1.38-5.5l2.25-.23a28.48,28.48,0,0,1-2.18,5.59Z"/><path class="cls-6" d="M129.31,135.42a5.26,5.26,0,0,0,2.66.8c1.48,0,2.16-.73,2.16-1.65s-.57-1.5-2.06-2c-2-.71-2.95-1.82-2.95-3.15,0-1.79,1.45-3.26,3.84-3.26a5.65,5.65,0,0,1,2.74.68l-.51,1.48a4.26,4.26,0,0,0-2.27-.65c-1.2,0-1.87.69-1.87,1.52s.67,1.33,2.12,1.89c1.93.73,2.92,1.7,2.92,3.35,0,2-1.52,3.34-4.16,3.34a6.35,6.35,0,0,1-3.13-.76Z"/><path class="cls-6" d="M141.31,123.16v3.2h2.9v1.54h-2.9v6c0,1.38.39,2.16,1.52,2.16a4.39,4.39,0,0,0,1.17-.14l.09,1.52a4.94,4.94,0,0,1-1.79.28,2.84,2.84,0,0,1-2.19-.85,4.16,4.16,0,0,1-.78-2.9V127.9h-1.72v-1.54h1.72v-2.67Z"/><path class="cls-6" d="M147.61,126.36l2.44,6.57c.25.74.53,1.61.71,2.28h.05c.21-.67.44-1.52.71-2.32l2.21-6.53h2.14l-3,7.93c-1.45,3.82-2.43,5.77-3.81,7a5.5,5.5,0,0,1-2.49,1.31l-.5-1.7a5.53,5.53,0,0,0,1.77-1,6.21,6.21,0,0,0,1.7-2.25,1.51,1.51,0,0,0,.16-.49,2,2,0,0,0-.14-.53l-4.11-10.25Z"/><path class="cls-6" d="M157.89,121.16h2v16.33h-2Z"/><path class="cls-6" d="M164.63,132.29a3.57,3.57,0,0,0,3.82,3.86,7.35,7.35,0,0,0,3.08-.57l.35,1.45a9.08,9.08,0,0,1-3.71.69c-3.42,0-5.47-2.26-5.47-5.61s2-6,5.22-6c3.63,0,4.6,3.19,4.6,5.24a8.31,8.31,0,0,1-.07.94Zm5.94-1.45c0-1.29-.53-3.29-2.81-3.29-2,0-2.94,1.89-3.1,3.29Z"/><path class="cls-6" d="M186.44,137.49l-.16-1.41h-.07a4.15,4.15,0,0,1-3.41,1.66,3.17,3.17,0,0,1-3.4-3.2c0-2.69,2.39-4.16,6.69-4.13v-.23a2.3,2.3,0,0,0-2.53-2.58,5.55,5.55,0,0,0-2.9.83l-.46-1.34a7,7,0,0,1,3.66-1c3.4,0,4.23,2.32,4.23,4.55v4.16a15.43,15.43,0,0,0,.19,2.67Zm-.3-5.68c-2.21-.05-4.72.34-4.72,2.5a1.8,1.8,0,0,0,1.91,1.94,2.76,2.76,0,0,0,2.69-1.87,2,2,0,0,0,.12-.64Z"/><path class="cls-6" d="M191.54,129.37c0-1.15,0-2.09-.09-3h1.79l.12,1.84h0a4.07,4.07,0,0,1,3.67-2.09c1.54,0,3.94.91,3.94,4.73v6.65h-2v-6.42c0-1.79-.66-3.29-2.57-3.29a2.89,2.89,0,0,0-2.72,2.07,3,3,0,0,0-.13,1v6.69h-2Z"/><path class="cls-6" d="M214.1,121.16v13.45c0,1,0,2.12.1,2.88h-1.82l-.09-1.93h0a4.12,4.12,0,0,1-3.79,2.18c-2.69,0-4.76-2.28-4.76-5.66,0-3.7,2.27-6,5-6a3.7,3.7,0,0,1,3.35,1.7h.05v-6.65Zm-2,9.73A3.46,3.46,0,0,0,212,130a3,3,0,0,0-2.92-2.35c-2.09,0-3.34,1.84-3.34,4.3,0,2.26,1.11,4.12,3.29,4.12a3,3,0,0,0,3-2.42,3.42,3.42,0,0,0,.09-.87Z"/><path class="cls-6" d="M225.14,123.16v3.2H228v1.54h-2.9v6c0,1.38.39,2.16,1.52,2.16a4.39,4.39,0,0,0,1.17-.14l.1,1.52a5,5,0,0,1-1.8.28,2.8,2.8,0,0,1-2.18-.85,4.11,4.11,0,0,1-.78-2.9V127.9h-1.73v-1.54h1.73v-2.67Z"/><path class="cls-6" d="M236.67,137.49l-.16-1.41h-.07a4.14,4.14,0,0,1-3.41,1.66,3.17,3.17,0,0,1-3.4-3.2c0-2.69,2.39-4.16,6.69-4.13v-.23a2.3,2.3,0,0,0-2.53-2.58,5.55,5.55,0,0,0-2.9.83l-.46-1.34a7,7,0,0,1,3.66-1c3.4,0,4.23,2.32,4.23,4.55v4.16a15.43,15.43,0,0,0,.19,2.67Zm-.3-5.68c-2.21-.05-4.72.34-4.72,2.5a1.8,1.8,0,0,0,1.91,1.94,2.76,2.76,0,0,0,2.69-1.87,2,2,0,0,0,.12-.64Z"/><path class="cls-6" d="M241.5,135.42a5.3,5.3,0,0,0,2.67.8c1.47,0,2.16-.73,2.16-1.65s-.58-1.5-2.07-2c-2-.71-2.95-1.82-2.95-3.15,0-1.79,1.45-3.26,3.84-3.26a5.65,5.65,0,0,1,2.74.68l-.51,1.48a4.26,4.26,0,0,0-2.27-.65c-1.2,0-1.86.69-1.86,1.52s.66,1.33,2.11,1.89c1.93.73,2.92,1.7,2.92,3.35,0,2-1.52,3.34-4.16,3.34A6.35,6.35,0,0,1,241,137Z"/><path class="cls-6" d="M253.5,123.16v3.2h2.9v1.54h-2.9v6c0,1.38.39,2.16,1.52,2.16a4.39,4.39,0,0,0,1.17-.14l.1,1.52a5,5,0,0,1-1.8.28,2.8,2.8,0,0,1-2.18-.85,4.11,4.11,0,0,1-.78-2.9V127.9H249.8v-1.54h1.73v-2.67Z"/><path class="cls-6" d="M259.85,132.29a3.56,3.56,0,0,0,3.82,3.86,7.35,7.35,0,0,0,3.08-.57l.34,1.45a9,9,0,0,1-3.7.69c-3.42,0-5.47-2.26-5.47-5.61s2-6,5.22-6c3.63,0,4.6,3.19,4.6,5.24a8.31,8.31,0,0,1-.07.94Zm5.93-1.45c0-1.29-.53-3.29-2.8-3.29-2.05,0-3,1.89-3.11,3.29Z"/><path class="cls-6" d="M269.67,136.29a1.36,1.36,0,0,1,1.38-1.45,1.45,1.45,0,0,1,0,2.9A1.36,1.36,0,0,1,269.67,136.29Z"/><path class="cls-6" d="M282.23,122v15.5h-2V122Z"/><path class="cls-6" d="M286.07,129.37c0-1.15,0-2.09-.09-3h1.79l.12,1.84h0a4.1,4.1,0,0,1,3.68-2.09c1.54,0,3.93.91,3.93,4.73v6.65h-2v-6.42c0-1.79-.67-3.29-2.57-3.29a2.89,2.89,0,0,0-2.72,2.07,3,3,0,0,0-.14,1v6.69h-2Z"/><path class="cls-6" d="M303.8,135.42a5.33,5.33,0,0,0,2.67.8c1.47,0,2.16-.73,2.16-1.65s-.57-1.5-2.07-2c-2-.71-2.94-1.82-2.94-3.15,0-1.79,1.45-3.26,3.84-3.26a5.65,5.65,0,0,1,2.74.68l-.51,1.48a4.3,4.3,0,0,0-2.28-.65c-1.19,0-1.86.69-1.86,1.52s.67,1.33,2.12,1.89c1.93.73,2.92,1.7,2.92,3.35,0,2-1.52,3.34-4.16,3.34a6.35,6.35,0,0,1-3.13-.76Z"/><path class="cls-6" d="M314.18,126.36l1.47,5.65c.32,1.25.62,2.4.83,3.55h.06c.26-1.13.63-2.33,1-3.52l1.82-5.68h1.7l1.73,5.56c.41,1.34.73,2.51,1,3.64h.06a34.37,34.37,0,0,1,.86-3.61l1.58-5.59h2l-3.58,11.13h-1.84l-1.71-5.31a36.43,36.43,0,0,1-1-3.66h-.05a34.57,34.57,0,0,1-1,3.68l-1.8,5.29h-1.84l-3.35-11.13Z"/><path class="cls-6" d="M331.38,132.29a3.56,3.56,0,0,0,3.82,3.86,7.35,7.35,0,0,0,3.08-.57l.34,1.45a9,9,0,0,1-3.7.69c-3.43,0-5.47-2.26-5.47-5.61s2-6,5.22-6c3.63,0,4.6,3.19,4.6,5.24a8.31,8.31,0,0,1-.07.94Zm5.93-1.45c0-1.29-.53-3.29-2.8-3.29-2.05,0-2.95,1.89-3.11,3.29Z"/><path class="cls-6" d="M343.09,132.29a3.56,3.56,0,0,0,3.82,3.86,7.39,7.39,0,0,0,3.08-.57l.34,1.45a9,9,0,0,1-3.7.69c-3.43,0-5.47-2.26-5.47-5.61s2-6,5.22-6c3.63,0,4.59,3.19,4.59,5.24a8.82,8.82,0,0,1-.06.94Zm5.93-1.45c0-1.29-.53-3.29-2.81-3.29-2,0-2.94,1.89-3.1,3.29Z"/><path class="cls-6" d="M356.1,123.16v3.2H359v1.54h-2.9v6c0,1.38.39,2.16,1.52,2.16a4.39,4.39,0,0,0,1.17-.14l.1,1.52a5,5,0,0,1-1.8.28,2.8,2.8,0,0,1-2.18-.85,4.11,4.11,0,0,1-.78-2.9V127.9H352.4v-1.54h1.73v-2.67Z"/><path class="cls-6" d="M362.45,132.29a3.57,3.57,0,0,0,3.82,3.86,7.35,7.35,0,0,0,3.08-.57l.35,1.45a9.12,9.12,0,0,1-3.71.69c-3.42,0-5.47-2.26-5.47-5.61s2-6,5.22-6c3.63,0,4.6,3.19,4.6,5.24a8.31,8.31,0,0,1-.07.94Zm5.94-1.45c0-1.29-.53-3.29-2.81-3.29-2.05,0-2.94,1.89-3.1,3.29Z"/><path class="cls-6" d="M373,129.37c0-1.15,0-2.09-.09-3h1.79l.12,1.84h0a4.08,4.08,0,0,1,3.67-2.09c1.54,0,3.94.91,3.94,4.73v6.65h-2v-6.42c0-1.79-.66-3.29-2.57-3.29a2.89,2.89,0,0,0-2.72,2.07,3,3,0,0,0-.13,1v6.69h-2Z"/><path class="cls-6" d="M387.11,132.29a3.56,3.56,0,0,0,3.82,3.86,7.39,7.39,0,0,0,3.08-.57l.34,1.45a9,9,0,0,1-3.7.69c-3.43,0-5.47-2.26-5.47-5.61s2-6,5.22-6c3.63,0,4.6,3.19,4.6,5.24a8.31,8.31,0,0,1-.07.94Zm5.93-1.45c0-1.29-.53-3.29-2.8-3.29-2.05,0-2.95,1.89-3.11,3.29Z"/><path class="cls-6" d="M397.69,129.83c0-1.31,0-2.44-.09-3.47h1.77l.07,2.18h.09a3.33,3.33,0,0,1,3.08-2.43,2.43,2.43,0,0,1,.57.06v1.91a3.34,3.34,0,0,0-.69-.07,2.84,2.84,0,0,0-2.71,2.6,6.52,6.52,0,0,0-.09.94v5.94h-2Z"/><path class="cls-6" d="M405.12,135.42a5.3,5.3,0,0,0,2.66.8c1.48,0,2.17-.73,2.17-1.65s-.58-1.5-2.07-2c-2-.71-2.95-1.82-2.95-3.15,0-1.79,1.45-3.26,3.84-3.26a5.65,5.65,0,0,1,2.74.68l-.51,1.48a4.26,4.26,0,0,0-2.27-.65c-1.2,0-1.87.69-1.87,1.52s.67,1.33,2.12,1.89c1.93.73,2.92,1.7,2.92,3.35,0,2-1.52,3.34-4.16,3.34a6.35,6.35,0,0,1-3.13-.76Z"/><path class="cls-6" d="M413.12,140.32a32.5,32.5,0,0,0,1.38-5.5l2.25-.23a27.87,27.87,0,0,1-2.18,5.59Z"/><path class="cls-6" d="M51.06,163.37c0-1.15,0-2.09-.09-3h1.77l.09,1.79h.07a3.83,3.83,0,0,1,3.5-2,3.29,3.29,0,0,1,3.15,2.23h0a4.5,4.5,0,0,1,1.24-1.45,3.79,3.79,0,0,1,2.46-.78c1.48,0,3.66,1,3.66,4.82v6.56H65v-6.3c0-2.14-.78-3.43-2.41-3.43a2.61,2.61,0,0,0-2.39,1.84,3.1,3.1,0,0,0-.16,1v6.88H58v-6.67c0-1.77-.78-3.06-2.32-3.06a2.76,2.76,0,0,0-2.51,2,2.71,2.71,0,0,0-.16,1v6.72h-2Z"/><path class="cls-6" d="M76.59,171.49l-.16-1.41h-.07a4.13,4.13,0,0,1-3.4,1.66,3.18,3.18,0,0,1-3.41-3.2c0-2.69,2.4-4.16,6.69-4.13v-.23a2.29,2.29,0,0,0-2.52-2.58,5.5,5.5,0,0,0-2.9.83l-.46-1.34a7,7,0,0,1,3.65-1c3.41,0,4.24,2.32,4.24,4.55v4.16a15.5,15.5,0,0,0,.18,2.67Zm-.3-5.68c-2.21-.05-4.71.34-4.71,2.5a1.8,1.8,0,0,0,1.91,1.94,2.78,2.78,0,0,0,2.69-1.87,2.32,2.32,0,0,0,.11-.64Z"/><path class="cls-6" d="M81.7,163.37c0-1.15,0-2.09-.09-3H83.4l.11,1.84h0a4.09,4.09,0,0,1,3.68-2.09c1.54,0,3.93.91,3.93,4.73v6.65h-2v-6.42c0-1.79-.67-3.29-2.58-3.29a2.88,2.88,0,0,0-2.71,2.07,3,3,0,0,0-.14,1v6.69h-2Z"/><path class="cls-6" d="M104,168.45c0,1.15,0,2.16.09,3h-1.79l-.12-1.82h0a4.18,4.18,0,0,1-3.68,2.07c-1.75,0-3.84-1-3.84-4.87v-6.51h2v6.16c0,2.12.64,3.54,2.48,3.54a2.92,2.92,0,0,0,2.67-1.84,2.82,2.82,0,0,0,.19-1v-6.83h2Z"/><path class="cls-6" d="M107.71,171.49V161.9h-1.56v-1.54h1.56v-.53a5.24,5.24,0,0,1,1.29-3.89,3.89,3.89,0,0,1,2.71-1,4.8,4.8,0,0,1,1.73.32l-.28,1.56a3.15,3.15,0,0,0-1.29-.25c-1.72,0-2.16,1.52-2.16,3.22v.6h2.69v1.54h-2.69v9.59Z"/><path class="cls-6" d="M120.57,171.49l-.16-1.41h-.07a4.15,4.15,0,0,1-3.41,1.66,3.17,3.17,0,0,1-3.4-3.2c0-2.69,2.39-4.16,6.69-4.13v-.23a2.3,2.3,0,0,0-2.53-2.58,5.55,5.55,0,0,0-2.9.83l-.46-1.34a7,7,0,0,1,3.66-1c3.4,0,4.23,2.32,4.23,4.55v4.16a15.43,15.43,0,0,0,.19,2.67Zm-.3-5.68c-2.21-.05-4.72.34-4.72,2.5a1.8,1.8,0,0,0,1.91,1.94,2.76,2.76,0,0,0,2.69-1.87,2,2,0,0,0,.12-.64Z"/><path class="cls-6" d="M133.61,171.07a7.41,7.41,0,0,1-3.2.65c-3.36,0-5.54-2.28-5.54-5.68a5.65,5.65,0,0,1,6-5.91,6.86,6.86,0,0,1,2.8.57l-.46,1.57a4.63,4.63,0,0,0-2.34-.53c-2.56,0-3.94,1.88-3.94,4.21a3.82,3.82,0,0,0,3.87,4.16,5.76,5.76,0,0,0,2.48-.55Z"/><path class="cls-6" d="M138.9,157.16v3.2h2.89v1.54H138.9v6c0,1.38.39,2.16,1.51,2.16a4.54,4.54,0,0,0,1.18-.14l.09,1.52a5,5,0,0,1-1.8.28,2.8,2.8,0,0,1-2.18-.85,4.16,4.16,0,0,1-.78-2.9V161.9h-1.73v-1.54h1.73v-2.67Z"/><path class="cls-6" d="M153.57,168.45c0,1.15,0,2.16.09,3h-1.79l-.12-1.82h0a4.19,4.19,0,0,1-3.68,2.07c-1.75,0-3.84-1-3.84-4.87v-6.51h2v6.16c0,2.12.64,3.54,2.48,3.54a2.92,2.92,0,0,0,2.67-1.84,2.82,2.82,0,0,0,.18-1v-6.83h2Z"/><path class="cls-6" d="M157.11,163.83c0-1.31,0-2.44-.09-3.47h1.77l.07,2.18H159a3.35,3.35,0,0,1,3.08-2.43,2.58,2.58,0,0,1,.58.06v1.91a3.41,3.41,0,0,0-.69-.07,2.83,2.83,0,0,0-2.71,2.6,5.31,5.31,0,0,0-.1.94v5.94h-2Z"/><path class="cls-6" d="M165.71,166.29a3.57,3.57,0,0,0,3.82,3.86,7.35,7.35,0,0,0,3.08-.57L173,171a9.06,9.06,0,0,1-3.7.69c-3.43,0-5.48-2.26-5.48-5.61s2-6,5.22-6c3.64,0,4.6,3.19,4.6,5.24a6.46,6.46,0,0,1-.07.94Zm5.94-1.45c0-1.29-.53-3.29-2.81-3.29-2.05,0-2.94,1.89-3.1,3.29Z"/><path class="cls-6" d="M176.29,163.83c0-1.31,0-2.44-.09-3.47H178l.07,2.18h.09a3.35,3.35,0,0,1,3.09-2.43,2.43,2.43,0,0,1,.57.06v1.91a3.41,3.41,0,0,0-.69-.07,2.83,2.83,0,0,0-2.71,2.6,5.36,5.36,0,0,0-.09.94v5.94h-2Z"/><path class="cls-6" d="M183.72,169.42a5.33,5.33,0,0,0,2.67.8c1.47,0,2.16-.73,2.16-1.65s-.57-1.5-2.07-2c-2-.71-2.94-1.82-2.94-3.15,0-1.79,1.45-3.26,3.84-3.26a5.65,5.65,0,0,1,2.74.68l-.51,1.48a4.3,4.3,0,0,0-2.28-.65c-1.19,0-1.86.69-1.86,1.52s.67,1.33,2.12,1.89c1.93.73,2.92,1.7,2.92,3.35,0,2-1.52,3.34-4.16,3.34a6.35,6.35,0,0,1-3.13-.76Z"/><path class="cls-6" d="M198.56,171.49V161.9H197v-1.54h1.57v-.53a5.24,5.24,0,0,1,1.29-3.89,3.89,3.89,0,0,1,2.71-1,4.7,4.7,0,0,1,1.72.32l-.27,1.56a3.15,3.15,0,0,0-1.29-.25c-1.72,0-2.16,1.52-2.16,3.22v.6h2.69v1.54h-2.69v9.59Z"/><path class="cls-6" d="M215,165.83c0,4.12-2.85,5.91-5.54,5.91-3,0-5.33-2.21-5.33-5.73,0-3.72,2.44-5.9,5.52-5.9S215,162.43,215,165.83Zm-8.83.12c0,2.43,1.41,4.27,3.38,4.27s3.38-1.81,3.38-4.32c0-1.89-.94-4.28-3.33-4.28S206.19,163.83,206.19,166Z"/><path class="cls-6" d="M225.7,171.07a7.41,7.41,0,0,1-3.2.65c-3.36,0-5.54-2.28-5.54-5.68a5.65,5.65,0,0,1,6-5.91,6.86,6.86,0,0,1,2.8.57l-.46,1.57a4.63,4.63,0,0,0-2.34-.53c-2.56,0-3.94,1.88-3.94,4.21a3.82,3.82,0,0,0,3.87,4.16,5.76,5.76,0,0,0,2.48-.55Z"/><path class="cls-6" d="M237.56,168.45c0,1.15,0,2.16.1,3h-1.8l-.11-1.82h-.05a4.18,4.18,0,0,1-3.68,2.07c-1.74,0-3.84-1-3.84-4.87v-6.51h2v6.16c0,2.12.64,3.54,2.48,3.54a2.92,2.92,0,0,0,2.67-1.84,3,3,0,0,0,.18-1v-6.83h2Z"/><path class="cls-6" d="M240.83,169.42a5.33,5.33,0,0,0,2.67.8c1.47,0,2.16-.73,2.16-1.65s-.57-1.5-2.07-2c-2-.71-2.94-1.82-2.94-3.15,0-1.79,1.45-3.26,3.84-3.26a5.64,5.64,0,0,1,2.73.68l-.5,1.48a4.3,4.3,0,0,0-2.28-.65c-1.19,0-1.86.69-1.86,1.52s.67,1.33,2.12,1.89c1.93.73,2.92,1.7,2.92,3.35,0,2-1.52,3.34-4.17,3.34a6.34,6.34,0,0,1-3.12-.76Z"/><path class="cls-6" d="M265.53,165.83c0,4.12-2.85,5.91-5.54,5.91-3,0-5.33-2.21-5.33-5.73,0-3.72,2.43-5.9,5.51-5.9S265.53,162.43,265.53,165.83Zm-8.83.12c0,2.43,1.4,4.27,3.38,4.27s3.38-1.81,3.38-4.32c0-1.89-.94-4.28-3.33-4.28S256.7,163.83,256.7,166Z"/><path class="cls-6" d="M268.27,163.37c0-1.15,0-2.09-.09-3H270l.12,1.84h0a4.1,4.1,0,0,1,3.68-2.09c1.54,0,3.93.91,3.93,4.73v6.65h-2v-6.42c0-1.79-.67-3.29-2.57-3.29a2.89,2.89,0,0,0-2.72,2.07,3,3,0,0,0-.14,1v6.69h-2Z"/><path class="cls-6" d="M287.06,160.36l2.18,6.25a28,28,0,0,1,.9,2.85h.07c.25-.92.58-1.84.94-2.85l2.17-6.25h2.11l-4.37,11.13h-1.93l-4.23-11.13Z"/><path class="cls-6" d="M303.6,171.49l-.16-1.41h-.07a4.14,4.14,0,0,1-3.41,1.66,3.17,3.17,0,0,1-3.4-3.2c0-2.69,2.39-4.16,6.69-4.13v-.23a2.3,2.3,0,0,0-2.53-2.58,5.55,5.55,0,0,0-2.9.83l-.46-1.34a7,7,0,0,1,3.66-1c3.4,0,4.23,2.32,4.23,4.55v4.16a15.43,15.43,0,0,0,.19,2.67Zm-.3-5.68c-2.21-.05-4.72.34-4.72,2.5a1.8,1.8,0,0,0,1.91,1.94,2.76,2.76,0,0,0,2.69-1.87,2,2,0,0,0,.12-.64Z"/><path class="cls-6" d="M308.7,163.83c0-1.31,0-2.44-.09-3.47h1.77l.07,2.18h.09a3.35,3.35,0,0,1,3.08-2.43,2.52,2.52,0,0,1,.58.06v1.91a3.41,3.41,0,0,0-.69-.07,2.83,2.83,0,0,0-2.71,2.6,5.31,5.31,0,0,0-.1.94v5.94h-2Z"/><path class="cls-6" d="M318.75,157.23a1.19,1.19,0,0,1-1.28,1.24,1.2,1.2,0,0,1-1.22-1.24,1.23,1.23,0,0,1,1.26-1.26A1.2,1.2,0,0,1,318.75,157.23Zm-2.25,14.26V160.36h2v11.13Z"/><path class="cls-6" d="M323.19,166.29a3.57,3.57,0,0,0,3.82,3.86,7.35,7.35,0,0,0,3.08-.57l.35,1.45a9.06,9.06,0,0,1-3.7.69c-3.43,0-5.48-2.26-5.48-5.61s2-6,5.22-6c3.63,0,4.6,3.19,4.6,5.24a8.31,8.31,0,0,1-.07.94Zm5.94-1.45c0-1.29-.53-3.29-2.81-3.29-2.05,0-2.94,1.89-3.1,3.29Z"/><path class="cls-6" d="M336.21,157.16v3.2h2.9v1.54h-2.9v6c0,1.38.39,2.16,1.52,2.16a4.39,4.39,0,0,0,1.17-.14l.09,1.52a4.94,4.94,0,0,1-1.79.28,2.84,2.84,0,0,1-2.19-.85,4.16,4.16,0,0,1-.78-2.9V161.9h-1.72v-1.54h1.72v-2.67Z"/><path class="cls-6" d="M342.51,160.36l2.44,6.57c.25.74.53,1.61.71,2.28h0c.21-.67.44-1.52.71-2.32l2.21-6.53h2.14l-3,7.93c-1.45,3.82-2.43,5.77-3.81,7a5.5,5.5,0,0,1-2.49,1.31l-.5-1.7a5.53,5.53,0,0,0,1.77-1,6.21,6.21,0,0,0,1.7-2.25,1.51,1.51,0,0,0,.16-.49,2,2,0,0,0-.14-.53l-4.11-10.25Z"/><path class="cls-6" d="M367.93,165.83c0,4.12-2.86,5.91-5.55,5.91-3,0-5.33-2.21-5.33-5.73,0-3.72,2.44-5.9,5.52-5.9S367.93,162.43,367.93,165.83Zm-8.83.12c0,2.43,1.4,4.27,3.38,4.27s3.38-1.81,3.38-4.32c0-1.89-.95-4.28-3.34-4.28S359.1,163.83,359.1,166Z"/><path class="cls-6" d="M370.87,171.49V161.9h-1.56v-1.54h1.56v-.53a5.28,5.28,0,0,1,1.29-3.89,3.89,3.89,0,0,1,2.71-1,4.71,4.71,0,0,1,1.73.32l-.28,1.56a3.15,3.15,0,0,0-1.29-.25c-1.72,0-2.16,1.52-2.16,3.22v.6h2.69v1.54h-2.69v9.59Z"/><path class="cls-6" d="M53.32,191.23a1.26,1.26,0,0,1-2.51,0A1.23,1.23,0,0,1,52.07,190,1.2,1.2,0,0,1,53.32,191.23Zm-2.26,14.26V194.36h2v11.13Z"/><path class="cls-6" d="M56.63,197.37c0-1.15,0-2.09-.1-3h1.8l.11,1.84h.05a4.09,4.09,0,0,1,3.68-2.1c1.54,0,3.93.92,3.93,4.74v6.65h-2v-6.42c0-1.79-.67-3.29-2.58-3.29a2.88,2.88,0,0,0-2.71,2.07,3,3,0,0,0-.14,1v6.69h-2Z"/><path class="cls-6" d="M69.58,197.37c0-1.15,0-2.09-.1-3h1.8l.11,1.84h0a4.09,4.09,0,0,1,3.68-2.1c1.54,0,3.93.92,3.93,4.74v6.65H77v-6.42c0-1.79-.67-3.29-2.58-3.29a2.88,2.88,0,0,0-2.71,2.07,3,3,0,0,0-.14,1v6.69h-2Z"/><path class="cls-6" d="M92.6,199.83c0,4.12-2.85,5.91-5.54,5.91-3,0-5.34-2.21-5.34-5.73,0-3.72,2.44-5.91,5.52-5.91S92.6,196.43,92.6,199.83Zm-8.83.12c0,2.43,1.4,4.27,3.38,4.27s3.38-1.81,3.38-4.32c0-1.89-1-4.28-3.34-4.28S83.77,197.83,83.77,200Z"/><path class="cls-6" d="M96,194.36l2.18,6.25a28,28,0,0,1,.9,2.85h.07c.25-.92.57-1.84.94-2.85l2.16-6.25h2.12L100,205.49H98l-4.24-11.13Z"/><path class="cls-6" d="M112.49,205.49l-.16-1.4h-.07a4.14,4.14,0,0,1-3.4,1.65,3.17,3.17,0,0,1-3.4-3.2c0-2.69,2.39-4.16,6.69-4.13v-.23a2.3,2.3,0,0,0-2.53-2.58,5.5,5.5,0,0,0-2.9.83l-.46-1.34a7,7,0,0,1,3.66-1c3.4,0,4.23,2.33,4.23,4.56v4.16a15.5,15.5,0,0,0,.18,2.67Zm-.3-5.68c-2.2-.05-4.71.34-4.71,2.5a1.79,1.79,0,0,0,1.91,1.94,2.76,2.76,0,0,0,2.69-1.87,2,2,0,0,0,.11-.64Z"/><path class="cls-6" d="M120,191.16v3.2h2.89v1.54H120v6c0,1.38.39,2.16,1.51,2.16a4.54,4.54,0,0,0,1.18-.14l.09,1.52a5,5,0,0,1-1.8.28,2.8,2.8,0,0,1-2.18-.85A4.11,4.11,0,0,1,118,202V195.9h-1.73v-1.54H118v-2.67Z"/><path class="cls-6" d="M127.56,191.23a1.26,1.26,0,0,1-2.51,0,1.23,1.23,0,0,1,1.27-1.26A1.2,1.2,0,0,1,127.56,191.23Zm-2.26,14.26V194.36h2v11.13Z"/><path class="cls-6" d="M131.65,194.36l2.19,6.25c.36,1,.66,1.93.89,2.85h.07c.26-.92.58-1.84.95-2.85l2.16-6.25H140l-4.37,11.13h-1.93l-4.23-11.13Z"/><path class="cls-6" d="M143,200.29a3.57,3.57,0,0,0,3.82,3.86,7.35,7.35,0,0,0,3.08-.57l.35,1.45a9.06,9.06,0,0,1-3.7.69c-3.43,0-5.48-2.26-5.48-5.61s2-6,5.22-6c3.64,0,4.6,3.2,4.6,5.25a6.46,6.46,0,0,1-.07.94Zm5.94-1.45c0-1.29-.53-3.29-2.81-3.29-2,0-2.94,1.89-3.1,3.29Z"/><path class="cls-6" d="M158.65,198c0-1.42,0-2.57-.09-3.63h1.82l.09,1.91h.05a4.37,4.37,0,0,1,3.95-2.17c2.69,0,4.72,2.28,4.72,5.66,0,4-2.44,6-5.06,6A3.9,3.9,0,0,1,160.7,204h0v6h-2Zm2,3a4.31,4.31,0,0,0,.09.83,3.1,3.1,0,0,0,3,2.36c2.14,0,3.38-1.74,3.38-4.3,0-2.23-1.17-4.13-3.31-4.13a3.46,3.46,0,0,0-3.19,3.33Z"/><path class="cls-6" d="M171.92,197.83c0-1.31,0-2.44-.09-3.47h1.77l.07,2.18h.09a3.36,3.36,0,0,1,3.09-2.44,2.47,2.47,0,0,1,.57.07v1.91a3.41,3.41,0,0,0-.69-.07,2.83,2.83,0,0,0-2.71,2.6,5.31,5.31,0,0,0-.1.94v5.94h-2Z"/><path class="cls-6" d="M189.47,199.83c0,4.12-2.85,5.91-5.54,5.91-3,0-5.34-2.21-5.34-5.73,0-3.72,2.44-5.91,5.52-5.91S189.47,196.43,189.47,199.83Zm-8.83.12c0,2.43,1.4,4.27,3.38,4.27s3.38-1.81,3.38-4.32c0-1.89-.94-4.28-3.33-4.28S180.64,197.83,180.64,200Z"/><path class="cls-6" d="M201.82,189.16v13.45c0,1,0,2.12.09,2.88H200.1l-.09-1.93h0a4.12,4.12,0,0,1-3.79,2.18c-2.69,0-4.76-2.28-4.76-5.66,0-3.7,2.27-6,5-6a3.7,3.7,0,0,1,3.35,1.71h.05v-6.65Zm-2,9.73a3.46,3.46,0,0,0-.09-.85,3,3,0,0,0-2.92-2.35c-2.1,0-3.34,1.84-3.34,4.3,0,2.26,1.11,4.12,3.29,4.12a3,3,0,0,0,3-2.42,3.42,3.42,0,0,0,.09-.87Z"/><path class="cls-6" d="M214.68,202.45c0,1.15,0,2.16.09,3H213l-.12-1.82h0a4.19,4.19,0,0,1-3.68,2.07c-1.75,0-3.84-1-3.84-4.87v-6.51h2v6.16c0,2.12.64,3.54,2.48,3.54a2.92,2.92,0,0,0,2.67-1.84,2.86,2.86,0,0,0,.19-1v-6.83h2Z"/><path class="cls-6" d="M226.16,205.07a7.41,7.41,0,0,1-3.2.65c-3.36,0-5.54-2.28-5.54-5.68a5.65,5.65,0,0,1,6-5.91,6.86,6.86,0,0,1,2.8.57l-.46,1.57a4.63,4.63,0,0,0-2.34-.53c-2.56,0-3.94,1.88-3.94,4.21a3.82,3.82,0,0,0,3.87,4.16,5.76,5.76,0,0,0,2.48-.55Z"/><path class="cls-6" d="M231.45,191.16v3.2h2.89v1.54h-2.89v6c0,1.38.39,2.16,1.51,2.16a4.54,4.54,0,0,0,1.18-.14l.09,1.52a4.94,4.94,0,0,1-1.79.28,2.81,2.81,0,0,1-2.19-.85,4.16,4.16,0,0,1-.78-2.9V195.9h-1.73v-1.54h1.73v-2.67Z"/><path class="cls-6" d="M236.53,203.42a5.33,5.33,0,0,0,2.67.8c1.47,0,2.16-.73,2.16-1.65s-.58-1.5-2.07-2c-2-.71-2.94-1.82-2.94-3.15,0-1.79,1.44-3.27,3.84-3.27a5.52,5.52,0,0,1,2.73.7l-.5,1.47a4.3,4.3,0,0,0-2.28-.65c-1.19,0-1.86.69-1.86,1.52s.67,1.33,2.11,1.89c1.93.73,2.92,1.7,2.92,3.35,0,2-1.51,3.34-4.16,3.34A6.38,6.38,0,0,1,236,205Z"/><path class="cls-6" d="M253.6,191.16v3.2h2.89v1.54H253.6v6c0,1.38.39,2.16,1.51,2.16a4.54,4.54,0,0,0,1.18-.14l.09,1.52a5,5,0,0,1-1.8.28,2.8,2.8,0,0,1-2.18-.85,4.11,4.11,0,0,1-.78-2.9V195.9h-1.73v-1.54h1.73v-2.67Z"/><path class="cls-6" d="M259,189.16h2v7h0a3.76,3.76,0,0,1,1.45-1.43,4.22,4.22,0,0,1,2.07-.58c1.5,0,3.89.92,3.89,4.77v6.62h-2v-6.4c0-1.79-.67-3.31-2.58-3.31a2.89,2.89,0,0,0-2.71,2,2.32,2.32,0,0,0-.14,1v6.72h-2Z"/><path class="cls-6" d="M278.07,205.49l-.16-1.4h-.07a4.16,4.16,0,0,1-3.41,1.65,3.17,3.17,0,0,1-3.4-3.2c0-2.69,2.39-4.16,6.69-4.13v-.23a2.3,2.3,0,0,0-2.53-2.58,5.55,5.55,0,0,0-2.9.83l-.46-1.34a7,7,0,0,1,3.66-1c3.4,0,4.23,2.33,4.23,4.56v4.16a15.43,15.43,0,0,0,.19,2.67Zm-.3-5.68c-2.21-.05-4.72.34-4.72,2.5a1.8,1.8,0,0,0,1.91,1.94,2.76,2.76,0,0,0,2.69-1.87,2,2,0,0,0,.12-.64Z"/><path class="cls-6" d="M285.52,191.16v3.2h2.9v1.54h-2.9v6c0,1.38.39,2.16,1.52,2.16a4.39,4.39,0,0,0,1.17-.14l.09,1.52a4.94,4.94,0,0,1-1.79.28,2.84,2.84,0,0,1-2.19-.85,4.16,4.16,0,0,1-.78-2.9V195.9h-1.72v-1.54h1.72v-2.67Z"/><path class="cls-6" d="M305.53,194.36c0,.8-.09,1.7-.09,3.06v6.46c0,2.55-.51,4.11-1.59,5.08a5.92,5.92,0,0,1-4.05,1.33,7.17,7.17,0,0,1-3.7-.92l.51-1.54a6.23,6.23,0,0,0,3.26.88c2.07,0,3.59-1.08,3.59-3.89v-1.24h0a4,4,0,0,1-3.54,1.86c-2.76,0-4.74-2.34-4.74-5.43,0-3.77,2.46-5.91,5-5.91a3.7,3.7,0,0,1,3.47,1.94h0l.1-1.68Zm-2.1,4.39a3,3,0,0,0-.11-.92,2.92,2.92,0,0,0-2.83-2.14c-1.93,0-3.31,1.63-3.31,4.21,0,2.18,1.1,4,3.29,4a2.94,2.94,0,0,0,2.8-2.07,3.33,3.33,0,0,0,.16-1.08Z"/><path class="cls-6" d="M311.1,191.23a1.26,1.26,0,0,1-2.51,0,1.23,1.23,0,0,1,1.26-1.26A1.2,1.2,0,0,1,311.1,191.23Zm-2.26,14.26V194.36h2v11.13Z"/><path class="cls-6" d="M315.19,194.36l2.18,6.25a28,28,0,0,1,.9,2.85h.07c.25-.92.57-1.84.94-2.85l2.16-6.25h2.12l-4.37,11.13h-1.93L313,194.36Z"/><path class="cls-6" d="M326.55,200.29a3.56,3.56,0,0,0,3.82,3.86,7.35,7.35,0,0,0,3.08-.57l.34,1.45a9,9,0,0,1-3.7.69c-3.42,0-5.47-2.26-5.47-5.61s2-6,5.22-6c3.63,0,4.6,3.2,4.6,5.25a8.31,8.31,0,0,1-.07.94Zm5.93-1.45c0-1.29-.53-3.29-2.8-3.29-2.05,0-2.94,1.89-3.11,3.29Z"/><path class="cls-6" d="M50.78,237.42a5.33,5.33,0,0,0,2.67.8c1.47,0,2.16-.73,2.16-1.65s-.57-1.5-2.07-2c-2-.71-2.94-1.82-2.94-3.15,0-1.79,1.45-3.27,3.84-3.27a5.53,5.53,0,0,1,2.74.7l-.51,1.47a4.26,4.26,0,0,0-2.27-.65c-1.2,0-1.87.69-1.87,1.52s.67,1.33,2.12,1.89c1.93.73,2.92,1.7,2.92,3.35,0,2-1.52,3.34-4.16,3.34a6.35,6.35,0,0,1-3.13-.76Z"/><path class="cls-6" d="M66.52,239.49l-.16-1.4h-.07a4.17,4.17,0,0,1-3.41,1.65,3.17,3.17,0,0,1-3.4-3.2c0-2.69,2.39-4.16,6.69-4.13v-.23a2.3,2.3,0,0,0-2.53-2.58,5.55,5.55,0,0,0-2.9.83l-.46-1.34a7,7,0,0,1,3.66-1c3.4,0,4.23,2.33,4.23,4.56v4.16a15.43,15.43,0,0,0,.19,2.67Zm-.3-5.68c-2.21-.05-4.72.34-4.72,2.5a1.8,1.8,0,0,0,1.91,1.94,2.76,2.76,0,0,0,2.69-1.87,2,2,0,0,0,.12-.64Z"/><path class="cls-6" d="M74,225.16v3.2h2.9v1.54H74v6c0,1.38.39,2.16,1.52,2.16a4.39,4.39,0,0,0,1.17-.14l.09,1.52a4.94,4.94,0,0,1-1.79.28,2.82,2.82,0,0,1-2.19-.85A4.16,4.16,0,0,1,72,236V229.9H70.27v-1.54H72v-2.67Z"/><path class="cls-6" d="M81.58,225.23a1.26,1.26,0,0,1-2.51,0A1.23,1.23,0,0,1,80.34,224,1.2,1.2,0,0,1,81.58,225.23Zm-2.25,14.26V228.36h2v11.13Z"/><path class="cls-6" d="M84.62,237.42a5.3,5.3,0,0,0,2.67.8c1.47,0,2.16-.73,2.16-1.65s-.58-1.5-2.07-2c-2-.71-2.95-1.82-2.95-3.15,0-1.79,1.45-3.27,3.84-3.27a5.53,5.53,0,0,1,2.74.7l-.51,1.47a4.26,4.26,0,0,0-2.27-.65c-1.2,0-1.86.69-1.86,1.52s.66,1.33,2.11,1.89c1.93.73,2.92,1.7,2.92,3.35,0,2-1.52,3.34-4.16,3.34a6.35,6.35,0,0,1-3.13-.76Z"/><path class="cls-6" d="M94.39,239.49V229.9H92.83v-1.54h1.56v-.53a5.28,5.28,0,0,1,1.29-3.89,3.89,3.89,0,0,1,2.71-1,4.71,4.71,0,0,1,1.73.32l-.28,1.56a3.15,3.15,0,0,0-1.29-.25c-1.72,0-2.16,1.52-2.16,3.22v.6h2.69v1.54H96.39v9.59Z"/><path class="cls-6" d="M107.25,239.49l-.16-1.4H107a4.16,4.16,0,0,1-3.41,1.65,3.17,3.17,0,0,1-3.4-3.2c0-2.69,2.39-4.16,6.69-4.13v-.23a2.3,2.3,0,0,0-2.53-2.58,5.49,5.49,0,0,0-2.89.83l-.46-1.34a7,7,0,0,1,3.65-1c3.41,0,4.23,2.33,4.23,4.56v4.16a15.43,15.43,0,0,0,.19,2.67Zm-.3-5.68c-2.21-.05-4.71.34-4.71,2.5a1.79,1.79,0,0,0,1.9,1.94,2.76,2.76,0,0,0,2.69-1.87,2,2,0,0,0,.12-.64Z"/><path class="cls-6" d="M120.29,239.07a7.38,7.38,0,0,1-3.2.65,5.29,5.29,0,0,1-5.54-5.68,5.66,5.66,0,0,1,6-5.91,6.86,6.86,0,0,1,2.8.57l-.46,1.57a4.63,4.63,0,0,0-2.34-.53c-2.55,0-3.93,1.88-3.93,4.21a3.81,3.81,0,0,0,3.86,4.16,5.76,5.76,0,0,0,2.48-.55Z"/><path class="cls-6" d="M125.58,225.16v3.2h2.9v1.54h-2.9v6c0,1.38.39,2.16,1.52,2.16a4.39,4.39,0,0,0,1.17-.14l.09,1.52a4.94,4.94,0,0,1-1.79.28,2.84,2.84,0,0,1-2.19-.85,4.16,4.16,0,0,1-.78-2.9V229.9h-1.72v-1.54h1.72v-2.67Z"/><path class="cls-6" d="M133.19,225.23a1.19,1.19,0,0,1-1.28,1.24,1.2,1.2,0,0,1-1.22-1.24A1.22,1.22,0,0,1,132,224,1.2,1.2,0,0,1,133.19,225.23Zm-2.25,14.26V228.36h2v11.13Z"/><path class="cls-6" d="M146.58,233.83c0,4.12-2.85,5.91-5.55,5.91-3,0-5.33-2.21-5.33-5.73,0-3.72,2.44-5.91,5.52-5.91S146.58,230.43,146.58,233.83Zm-8.83.12c0,2.43,1.4,4.27,3.38,4.27s3.38-1.81,3.38-4.32c0-1.89-.95-4.28-3.34-4.28S137.75,231.83,137.75,234Z"/><path class="cls-6" d="M149.32,231.37c0-1.15,0-2.09-.1-3H151l.11,1.84h.05a4.09,4.09,0,0,1,3.68-2.1c1.54,0,3.93.92,3.93,4.74v6.65h-2v-6.42c0-1.79-.67-3.29-2.58-3.29a2.88,2.88,0,0,0-2.71,2.07,2.75,2.75,0,0,0-.14,1v6.69h-2Z"/><path class="cls-6" d="M169.76,225.16v3.2h2.9v1.54h-2.9v6c0,1.38.39,2.16,1.52,2.16a4.39,4.39,0,0,0,1.17-.14l.09,1.52a4.94,4.94,0,0,1-1.79.28,2.8,2.8,0,0,1-2.18-.85,4.11,4.11,0,0,1-.79-2.9V229.9h-1.72v-1.54h1.72v-2.67Z"/><path class="cls-6" d="M185.05,233.83c0,4.12-2.85,5.91-5.54,5.91-3,0-5.33-2.21-5.33-5.73,0-3.72,2.44-5.91,5.52-5.91S185.05,230.43,185.05,233.83Zm-8.83.12c0,2.43,1.41,4.27,3.39,4.27s3.38-1.81,3.38-4.32c0-1.89-1-4.28-3.34-4.28S176.22,231.83,176.22,234Z"/><path class="cls-6" d="M200.79,239.07a7.38,7.38,0,0,1-3.2.65c-3.36,0-5.54-2.28-5.54-5.68a5.66,5.66,0,0,1,6-5.91,6.86,6.86,0,0,1,2.8.57l-.46,1.57a4.63,4.63,0,0,0-2.34-.53c-2.55,0-3.93,1.88-3.93,4.21a3.81,3.81,0,0,0,3.86,4.16,5.76,5.76,0,0,0,2.48-.55Z"/><path class="cls-6" d="M213.28,233.83c0,4.12-2.86,5.91-5.55,5.91-3,0-5.33-2.21-5.33-5.73,0-3.72,2.44-5.91,5.52-5.91S213.28,230.43,213.28,233.83Zm-8.83.12c0,2.43,1.4,4.27,3.38,4.27s3.38-1.81,3.38-4.32c0-1.89-1-4.28-3.34-4.28S204.45,231.83,204.45,234Z"/><path class="cls-6" d="M216,231.37c0-1.15,0-2.09-.09-3h1.8l.11,1.84h0a4.09,4.09,0,0,1,3.68-2.1c1.54,0,3.93.92,3.93,4.74v6.65h-2v-6.42c0-1.79-.66-3.29-2.57-3.29a2.88,2.88,0,0,0-2.71,2.07,2.75,2.75,0,0,0-.14,1v6.69h-2Z"/><path class="cls-6" d="M228.69,237.42a5.3,5.3,0,0,0,2.67.8c1.47,0,2.16-.73,2.16-1.65s-.58-1.5-2.07-2c-2-.71-2.95-1.82-2.95-3.15,0-1.79,1.45-3.27,3.84-3.27a5.53,5.53,0,0,1,2.74.7l-.51,1.47a4.26,4.26,0,0,0-2.27-.65c-1.2,0-1.86.69-1.86,1.52s.66,1.33,2.11,1.89c1.93.73,2.92,1.7,2.92,3.35,0,2-1.52,3.34-4.16,3.34a6.35,6.35,0,0,1-3.13-.76Z"/><path class="cls-6" d="M247.57,236.45c0,1.15,0,2.16.09,3h-1.79l-.12-1.82h0a4.19,4.19,0,0,1-3.68,2.07c-1.75,0-3.84-1-3.84-4.87v-6.51h2v6.16c0,2.12.64,3.54,2.48,3.54a2.92,2.92,0,0,0,2.67-1.84,2.86,2.86,0,0,0,.18-1v-6.83h2Z"/><path class="cls-6" d="M251.11,231.37c0-1.15,0-2.09-.09-3h1.77l.09,1.79H253a3.84,3.84,0,0,1,3.5-2.05,3.3,3.3,0,0,1,3.15,2.24h0a4.6,4.6,0,0,1,1.24-1.45,3.81,3.81,0,0,1,2.47-.79c1.47,0,3.65,1,3.65,4.83v6.56h-2v-6.3c0-2.14-.78-3.43-2.41-3.43a2.61,2.61,0,0,0-2.39,1.84,3.39,3.39,0,0,0-.16,1v6.88h-2v-6.67c0-1.77-.78-3.06-2.32-3.06a2.76,2.76,0,0,0-2.51,2,2.94,2.94,0,0,0-.16,1v6.72h-2Z"/><path class="cls-6" d="M271.61,234.29a3.55,3.55,0,0,0,3.81,3.86,7.35,7.35,0,0,0,3.08-.57l.35,1.45a9,9,0,0,1-3.7.69c-3.43,0-5.48-2.26-5.48-5.61s2-6,5.22-6c3.64,0,4.6,3.2,4.6,5.25a6.46,6.46,0,0,1-.07.94Zm5.93-1.45c0-1.29-.53-3.29-2.81-3.29-2,0-2.94,1.89-3.1,3.29Z"/><path class="cls-6" d="M282.19,231.83c0-1.31,0-2.44-.1-3.47h1.77l.07,2.18h.1a3.34,3.34,0,0,1,3.08-2.44,2.4,2.4,0,0,1,.57.07v1.91A3.41,3.41,0,0,0,287,230a2.83,2.83,0,0,0-2.71,2.6,5.36,5.36,0,0,0-.09.94v5.94h-2Z"/><path class="cls-6" d="M289.61,237.42a5.33,5.33,0,0,0,2.67.8c1.47,0,2.16-.73,2.16-1.65s-.57-1.5-2.07-2c-2-.71-2.94-1.82-2.94-3.15,0-1.79,1.45-3.27,3.84-3.27a5.53,5.53,0,0,1,2.74.7l-.51,1.47a4.3,4.3,0,0,0-2.28-.65c-1.19,0-1.86.69-1.86,1.52s.67,1.33,2.12,1.89c1.93.73,2.92,1.7,2.92,3.35,0,2-1.52,3.34-4.16,3.34a6.35,6.35,0,0,1-3.13-.76Z"/><path class="cls-6" d="M298.45,238.29a1.36,1.36,0,0,1,1.38-1.45,1.45,1.45,0,1,1-1.38,1.45Z"/><path class="cls-6" d="M311,224v6.48h7.5V224h2v15.5h-2v-7.27H311v7.27h-2V224Z"/><path class="cls-6" d="M334.19,233.83c0,4.12-2.86,5.91-5.55,5.91-3,0-5.33-2.21-5.33-5.73,0-3.72,2.44-5.91,5.52-5.91S334.19,230.43,334.19,233.83Zm-8.83.12c0,2.43,1.4,4.27,3.38,4.27s3.38-1.81,3.38-4.32c0-1.89-.95-4.28-3.34-4.28S325.36,231.83,325.36,234Z"/><path class="cls-6" d="M337.57,228.36,339,234c.32,1.25.62,2.4.83,3.55h.07c.25-1.13.62-2.33,1-3.52l1.81-5.68h1.7l1.73,5.56c.41,1.34.73,2.51,1,3.64h.07a31.87,31.87,0,0,1,.85-3.61l1.58-5.59h2l-3.58,11.13h-1.84l-1.7-5.31a34,34,0,0,1-1-3.66h-.05a32.35,32.35,0,0,1-1,3.68l-1.79,5.29h-1.84l-3.36-11.13Z"/><path class="cls-6" d="M354.77,234.29a3.57,3.57,0,0,0,3.82,3.86,7.35,7.35,0,0,0,3.08-.57L362,239a9.12,9.12,0,0,1-3.71.69c-3.42,0-5.47-2.26-5.47-5.61s2-6,5.22-6c3.63,0,4.6,3.2,4.6,5.25a8.31,8.31,0,0,1-.07.94Zm5.94-1.45c0-1.29-.53-3.29-2.81-3.29-2,0-2.94,1.89-3.1,3.29Z"/><path class="cls-6" d="M366.13,228.36l2.19,6.25a28,28,0,0,1,.9,2.85h.06c.26-.92.58-1.84,1-2.85l2.16-6.25h2.11l-4.36,11.13H368.2L364,228.36Z"/><path class="cls-6" d="M377.5,234.29a3.55,3.55,0,0,0,3.81,3.86,7.4,7.4,0,0,0,3.09-.57l.34,1.45a9,9,0,0,1-3.7.69c-3.43,0-5.47-2.26-5.47-5.61s2-6,5.21-6c3.64,0,4.6,3.2,4.6,5.25a8.82,8.82,0,0,1-.06.94Zm5.93-1.45c0-1.29-.53-3.29-2.81-3.29-2,0-2.94,1.89-3.1,3.29Z"/><path class="cls-6" d="M388.08,231.83c0-1.31,0-2.44-.1-3.47h1.77l.07,2.18h.1A3.34,3.34,0,0,1,393,228.1a2.4,2.4,0,0,1,.57.07v1.91a3.41,3.41,0,0,0-.69-.07,2.83,2.83,0,0,0-2.71,2.6,5.36,5.36,0,0,0-.09.94v5.94h-2Z"/><path class="cls-6" d="M393.25,242.32a32.5,32.5,0,0,0,1.38-5.5l2.25-.23a27.63,27.63,0,0,1-2.18,5.59Z"/><path class="cls-6" d="M407,225.16v3.2h2.9v1.54H407v6c0,1.38.4,2.16,1.52,2.16a4.54,4.54,0,0,0,1.18-.14l.09,1.52a5,5,0,0,1-1.8.28,2.8,2.8,0,0,1-2.18-.85A4.11,4.11,0,0,1,405,236V229.9H403.3v-1.54H405v-2.67Z"/><path class="cls-6" d="M412.36,223.16h2v7h0a3.76,3.76,0,0,1,1.45-1.43,4.22,4.22,0,0,1,2.07-.58c1.5,0,3.89.92,3.89,4.77v6.62h-2v-6.4c0-1.79-.66-3.31-2.57-3.31a2.89,2.89,0,0,0-2.71,2,2.32,2.32,0,0,0-.14,1v6.72h-2Z"/><path class="cls-6" d="M426.44,234.29a3.56,3.56,0,0,0,3.82,3.86,7.39,7.39,0,0,0,3.08-.57l.34,1.45a9,9,0,0,1-3.7.69c-3.43,0-5.47-2.26-5.47-5.61s2-6,5.22-6c3.63,0,4.6,3.2,4.6,5.25a8.31,8.31,0,0,1-.07.94Zm5.93-1.45c0-1.29-.53-3.29-2.8-3.29-2.05,0-2.95,1.89-3.11,3.29Z"/><path class="cls-6" d="M437.75,228.36l2.44,6.57c.26.74.53,1.61.72,2.28h0c.21-.67.44-1.52.71-2.32l2.21-6.53H446l-3,7.93c-1.45,3.82-2.44,5.77-3.82,7a5.5,5.5,0,0,1-2.49,1.31l-.5-1.7a5.53,5.53,0,0,0,1.77-1,6.21,6.21,0,0,0,1.7-2.25,1.51,1.51,0,0,0,.16-.49,1.63,1.63,0,0,0-.14-.53l-4.11-10.25Z"/><path class="cls-6" d="M57.22,273.49l-.16-1.4H57a4.14,4.14,0,0,1-3.4,1.65,3.17,3.17,0,0,1-3.4-3.2c0-2.69,2.39-4.16,6.69-4.13v-.23a2.3,2.3,0,0,0-2.53-2.58,5.53,5.53,0,0,0-2.9.83L51,263.09a7,7,0,0,1,3.66-1c3.4,0,4.23,2.33,4.23,4.56v4.16a16.57,16.57,0,0,0,.18,2.67Zm-.3-5.68c-2.2-.05-4.71.34-4.71,2.5a1.79,1.79,0,0,0,1.91,1.94,2.76,2.76,0,0,0,2.69-1.87,2,2,0,0,0,.11-.64Z"/><path class="cls-6" d="M62.33,265.83c0-1.31,0-2.44-.09-3.47H64l.07,2.18h.09a3.36,3.36,0,0,1,3.08-2.44,2.56,2.56,0,0,1,.58.07v1.91a3.49,3.49,0,0,0-.69-.07,2.84,2.84,0,0,0-2.72,2.6,6.52,6.52,0,0,0-.09.94v5.94h-2Z"/><path class="cls-6" d="M70.93,268.29a3.57,3.57,0,0,0,3.82,3.86,7.35,7.35,0,0,0,3.08-.57l.35,1.45a9.12,9.12,0,0,1-3.71.69c-3.42,0-5.47-2.26-5.47-5.61s2-6,5.22-6c3.63,0,4.6,3.2,4.6,5.25a8.31,8.31,0,0,1-.07.94Zm5.94-1.45c0-1.29-.53-3.29-2.81-3.29-2,0-2.94,1.89-3.1,3.29Z"/><path class="cls-6" d="M86.48,273.49c0-.76.09-1.89.09-2.88V257.16h2v7h.05a4.15,4.15,0,0,1,3.79-2c2.76,0,4.72,2.3,4.69,5.68,0,4-2.5,6-5,6a4,4,0,0,1-3.72-2.09h-.07l-.09,1.84ZM88.57,269a3.47,3.47,0,0,0,.1.73,3.11,3.11,0,0,0,3,2.37c2.12,0,3.38-1.72,3.38-4.28,0-2.23-1.15-4.13-3.31-4.13a3.22,3.22,0,0,0-3.08,2.48,3.66,3.66,0,0,0-.12.83Z"/><path class="cls-6" d="M101,268.29a3.56,3.56,0,0,0,3.82,3.86,7.35,7.35,0,0,0,3.08-.57l.34,1.45a9,9,0,0,1-3.7.69c-3.43,0-5.47-2.26-5.47-5.61s2-6,5.22-6c3.63,0,4.6,3.2,4.6,5.25a8.31,8.31,0,0,1-.07.94Zm5.93-1.45c0-1.29-.53-3.29-2.8-3.29-2,0-2.95,1.89-3.11,3.29Z"/><path class="cls-6" d="M119.48,273.07a7.36,7.36,0,0,1-3.19.65c-3.36,0-5.54-2.28-5.54-5.68a5.65,5.65,0,0,1,6-5.91,6.87,6.87,0,0,1,2.81.57l-.46,1.57a4.64,4.64,0,0,0-2.35-.53c-2.55,0-3.93,1.88-3.93,4.21a3.82,3.82,0,0,0,3.87,4.16,5.8,5.8,0,0,0,2.48-.55Z"/><path class="cls-6" d="M132,267.83c0,4.12-2.85,5.91-5.54,5.91-3,0-5.33-2.21-5.33-5.73,0-3.72,2.43-5.91,5.51-5.91S132,264.43,132,267.83Zm-8.83.12c0,2.43,1.4,4.27,3.38,4.27s3.38-1.81,3.38-4.32c0-1.89-.94-4.28-3.33-4.28S123.14,265.83,123.14,268Z"/><path class="cls-6" d="M134.71,265.37c0-1.15,0-2.09-.09-3h1.77l.09,1.79h.07a3.84,3.84,0,0,1,3.5-2,3.3,3.3,0,0,1,3.15,2.24h0a4.6,4.6,0,0,1,1.24-1.45,3.8,3.8,0,0,1,2.46-.79c1.48,0,3.66,1,3.66,4.83v6.56h-2v-6.3c0-2.14-.78-3.43-2.41-3.43a2.61,2.61,0,0,0-2.39,1.84,3.1,3.1,0,0,0-.16,1v6.88h-2v-6.67c0-1.77-.78-3.06-2.32-3.06a2.76,2.76,0,0,0-2.51,2,2.71,2.71,0,0,0-.16,1v6.72h-2Z"/><path class="cls-6" d="M156.33,259.23a1.26,1.26,0,0,1-2.51,0,1.23,1.23,0,0,1,1.27-1.26A1.2,1.2,0,0,1,156.33,259.23Zm-2.25,14.26V262.36h2v11.13Z"/><path class="cls-6" d="M159.64,265.37c0-1.15,0-2.09-.09-3h1.79l.12,1.84h0a4.09,4.09,0,0,1,3.68-2.1c1.54,0,3.93.92,3.93,4.74v6.65h-2v-6.42c0-1.79-.66-3.29-2.57-3.29a2.89,2.89,0,0,0-2.72,2.07,3,3,0,0,0-.13.95v6.69h-2Z"/><path class="cls-6" d="M182.18,262.36c-.05.8-.09,1.7-.09,3.06v6.46c0,2.55-.51,4.11-1.59,5.08a5.9,5.9,0,0,1-4.05,1.33,7.17,7.17,0,0,1-3.7-.92l.51-1.54a6.23,6.23,0,0,0,3.26.88c2.07,0,3.59-1.08,3.59-3.89v-1.24h0a4,4,0,0,1-3.55,1.86c-2.76,0-4.73-2.34-4.73-5.43,0-3.77,2.46-5.91,5-5.91a3.7,3.7,0,0,1,3.47,1.94h0l.09-1.68Zm-2.09,4.39a2.7,2.7,0,0,0-.12-.92,2.91,2.91,0,0,0-2.83-2.14c-1.93,0-3.31,1.63-3.31,4.21,0,2.18,1.11,4,3.29,4a3,3,0,0,0,2.81-2.07,3.62,3.62,0,0,0,.16-1.08Z"/><path class="cls-6" d="M191.82,268.29a3.56,3.56,0,0,0,3.82,3.86,7.39,7.39,0,0,0,3.08-.57l.34,1.45a9,9,0,0,1-3.7.69c-3.43,0-5.47-2.26-5.47-5.61s2-6,5.22-6c3.63,0,4.6,3.2,4.6,5.25a8.31,8.31,0,0,1-.07.94Zm5.93-1.45c0-1.29-.53-3.29-2.8-3.29-2,0-2.95,1.89-3.11,3.29Z"/><path class="cls-6" d="M203.18,262.36l2.18,6.25a28,28,0,0,1,.9,2.85h.07c.25-.92.58-1.84.94-2.85l2.17-6.25h2.11l-4.37,11.13h-1.93L201,262.36Z"/><path class="cls-6" d="M214.54,268.29a3.57,3.57,0,0,0,3.82,3.86,7.35,7.35,0,0,0,3.08-.57l.35,1.45a9.12,9.12,0,0,1-3.71.69c-3.42,0-5.47-2.26-5.47-5.61s2-6,5.22-6c3.63,0,4.6,3.2,4.6,5.25a8.31,8.31,0,0,1-.07.94Zm5.94-1.45c0-1.29-.53-3.29-2.81-3.29-2,0-2.94,1.89-3.1,3.29Z"/><path class="cls-6" d="M225.12,265.37c0-1.15,0-2.09-.09-3h1.79l.12,1.84H227a4.07,4.07,0,0,1,3.67-2.1c1.54,0,3.94.92,3.94,4.74v6.65h-2v-6.42c0-1.79-.66-3.29-2.57-3.29a2.89,2.89,0,0,0-2.72,2.07,3,3,0,0,0-.13.95v6.69h-2Z"/><path class="cls-6" d="M243.13,265.37c0-1.15,0-2.09-.09-3h1.77l.09,1.79H245a3.84,3.84,0,0,1,3.5-2,3.3,3.3,0,0,1,3.15,2.24h0a4.6,4.6,0,0,1,1.24-1.45,3.8,3.8,0,0,1,2.46-.79c1.48,0,3.66,1,3.66,4.83v6.56h-2v-6.3c0-2.14-.78-3.43-2.41-3.43a2.61,2.61,0,0,0-2.39,1.84,3.39,3.39,0,0,0-.16,1v6.88h-2v-6.67c0-1.77-.78-3.06-2.32-3.06a2.76,2.76,0,0,0-2.51,2,2.94,2.94,0,0,0-.16,1v6.72h-2Z"/><path class="cls-6" d="M272.57,267.83c0,4.12-2.85,5.91-5.54,5.91-3,0-5.34-2.21-5.34-5.73,0-3.72,2.44-5.91,5.52-5.91S272.57,264.43,272.57,267.83Zm-8.83.12c0,2.43,1.4,4.27,3.38,4.27s3.38-1.81,3.38-4.32c0-1.89-.94-4.28-3.33-4.28S263.74,265.83,263.74,268Z"/><path class="cls-6" d="M275.31,265.83c0-1.31,0-2.44-.09-3.47H277l.07,2.18h.09a3.34,3.34,0,0,1,3.08-2.44,2.4,2.4,0,0,1,.57.07v1.91a3.34,3.34,0,0,0-.69-.07,2.84,2.84,0,0,0-2.71,2.6,6.52,6.52,0,0,0-.09.94v5.94h-2Z"/><path class="cls-6" d="M283.91,268.29a3.56,3.56,0,0,0,3.82,3.86,7.35,7.35,0,0,0,3.08-.57l.34,1.45a9,9,0,0,1-3.7.69c-3.43,0-5.47-2.26-5.47-5.61s2-6,5.22-6c3.63,0,4.6,3.2,4.6,5.25a8.31,8.31,0,0,1-.07.94Zm5.93-1.45c0-1.29-.53-3.29-2.8-3.29-2.05,0-3,1.89-3.11,3.29Z"/><path class="cls-6" d="M307.48,273.07a7.36,7.36,0,0,1-3.19.65,5.29,5.29,0,0,1-5.55-5.68,5.66,5.66,0,0,1,6-5.91,6.87,6.87,0,0,1,2.81.57l-.46,1.57a4.64,4.64,0,0,0-2.35-.53c-2.55,0-3.93,1.88-3.93,4.21a3.82,3.82,0,0,0,3.86,4.16,5.85,5.85,0,0,0,2.49-.55Z"/><path class="cls-6" d="M320,267.83c0,4.12-2.85,5.91-5.54,5.91-3,0-5.33-2.21-5.33-5.73,0-3.72,2.43-5.91,5.51-5.91S320,264.43,320,267.83Zm-8.83.12c0,2.43,1.4,4.27,3.38,4.27s3.38-1.81,3.38-4.32c0-1.89-.94-4.28-3.33-4.28S311.14,265.83,311.14,268Z"/><path class="cls-6" d="M322.71,265.37c0-1.15,0-2.09-.09-3h1.79l.12,1.84h0a4.09,4.09,0,0,1,3.68-2.1c1.54,0,3.93.92,3.93,4.74v6.65h-2v-6.42c0-1.79-.67-3.29-2.57-3.29a2.89,2.89,0,0,0-2.72,2.07,3,3,0,0,0-.14.95v6.69h-2Z"/><path class="cls-6" d="M335.38,271.42a5.33,5.33,0,0,0,2.67.8c1.47,0,2.16-.73,2.16-1.65s-.57-1.5-2.07-2.05c-2-.71-2.94-1.82-2.94-3.15,0-1.79,1.45-3.27,3.84-3.27a5.53,5.53,0,0,1,2.74.7l-.51,1.47a4.3,4.3,0,0,0-2.28-.65c-1.19,0-1.86.69-1.86,1.52s.67,1.33,2.12,1.89c1.93.73,2.92,1.7,2.92,3.35,0,2-1.52,3.34-4.16,3.34a6.35,6.35,0,0,1-3.13-.76Z"/><path class="cls-6" d="M352.89,273.07a7.41,7.41,0,0,1-3.2.65c-3.36,0-5.54-2.28-5.54-5.68a5.65,5.65,0,0,1,6-5.91,6.86,6.86,0,0,1,2.8.57l-.46,1.57a4.63,4.63,0,0,0-2.34-.53c-2.56,0-3.94,1.88-3.94,4.21a3.82,3.82,0,0,0,3.87,4.16,5.76,5.76,0,0,0,2.48-.55Z"/><path class="cls-6" d="M357.69,259.23a1.19,1.19,0,0,1-1.28,1.24,1.2,1.2,0,0,1-1.22-1.24,1.22,1.22,0,0,1,1.26-1.26A1.2,1.2,0,0,1,357.69,259.23Zm-2.25,14.26V262.36h2v11.13Z"/><path class="cls-6" d="M371.08,267.83c0,4.12-2.85,5.91-5.54,5.91-3,0-5.34-2.21-5.34-5.73,0-3.72,2.44-5.91,5.52-5.91S371.08,264.43,371.08,267.83Zm-8.83.12c0,2.43,1.4,4.27,3.38,4.27s3.38-1.81,3.38-4.32c0-1.89-.94-4.28-3.34-4.28S362.25,265.83,362.25,268Z"/><path class="cls-6" d="M383.13,270.45c0,1.15,0,2.16.09,3h-1.79l-.12-1.82h0a4.18,4.18,0,0,1-3.68,2.07c-1.75,0-3.84-1-3.84-4.87v-6.51h2v6.16c0,2.12.64,3.54,2.48,3.54a2.92,2.92,0,0,0,2.67-1.84,2.86,2.86,0,0,0,.19-1v-6.83h2Z"/><path class="cls-6" d="M386.4,271.42a5.3,5.3,0,0,0,2.67.8c1.47,0,2.16-.73,2.16-1.65s-.58-1.5-2.07-2.05c-2-.71-3-1.82-3-3.15,0-1.79,1.45-3.27,3.84-3.27a5.53,5.53,0,0,1,2.74.7l-.51,1.47a4.26,4.26,0,0,0-2.27-.65c-1.2,0-1.86.69-1.86,1.52s.66,1.33,2.11,1.89c1.93.73,2.92,1.7,2.92,3.35,0,2-1.52,3.34-4.16,3.34a6.35,6.35,0,0,1-3.13-.76Z"/><path class="cls-6" d="M411.1,267.83c0,4.12-2.85,5.91-5.54,5.91-3,0-5.34-2.21-5.34-5.73,0-3.72,2.44-5.91,5.52-5.91S411.1,264.43,411.1,267.83Zm-8.83.12c0,2.43,1.4,4.27,3.38,4.27s3.38-1.81,3.38-4.32c0-1.89-.95-4.28-3.34-4.28S402.27,265.83,402.27,268Z"/><path class="cls-6" d="M413.84,265.37c0-1.15,0-2.09-.1-3h1.8l.11,1.84h.05a4.09,4.09,0,0,1,3.68-2.1c1.54,0,3.93.92,3.93,4.74v6.65h-2v-6.42c0-1.79-.67-3.29-2.58-3.29a2.88,2.88,0,0,0-2.71,2.07,3,3,0,0,0-.14.95v6.69h-2Z"/><path class="cls-6" d="M51.27,307.49V297.9H49.7v-1.54h1.57v-.53a5.24,5.24,0,0,1,1.29-3.89,3.89,3.89,0,0,1,2.71-1,4.7,4.7,0,0,1,1.72.32l-.27,1.56a3.19,3.19,0,0,0-1.29-.25c-1.72,0-2.16,1.52-2.16,3.22v.6H56v1.54H53.27v9.59Z"/><path class="cls-6" d="M67.73,301.83c0,4.12-2.85,5.91-5.54,5.91-3,0-5.33-2.21-5.33-5.73,0-3.72,2.44-5.91,5.52-5.91S67.73,298.43,67.73,301.83ZM58.9,302c0,2.43,1.41,4.27,3.38,4.27s3.38-1.81,3.38-4.32c0-1.89-.94-4.28-3.33-4.28S58.9,299.83,58.9,302Z"/><path class="cls-6" d="M80.54,301.83c0,4.12-2.85,5.91-5.54,5.91-3,0-5.33-2.21-5.33-5.73,0-3.72,2.44-5.91,5.52-5.91S80.54,298.43,80.54,301.83Zm-8.83.12c0,2.43,1.41,4.27,3.39,4.27s3.38-1.81,3.38-4.32c0-1.89-1-4.28-3.34-4.28S71.71,299.83,71.71,302Z"/><path class="cls-6" d="M92.9,291.16v13.45c0,1,0,2.12.09,2.88H91.17l-.09-1.93h0a4.11,4.11,0,0,1-3.79,2.18c-2.69,0-4.76-2.28-4.76-5.66,0-3.7,2.28-6,5-6a3.73,3.73,0,0,1,3.36,1.71h0v-6.65Zm-2,9.73a3.46,3.46,0,0,0-.09-.85,3,3,0,0,0-2.92-2.35c-2.09,0-3.33,1.84-3.33,4.3,0,2.26,1.1,4.12,3.28,4.12a3,3,0,0,0,3-2.42,3.42,3.42,0,0,0,.09-.87Z"/><path class="cls-6" d="M101.22,305.42a5.33,5.33,0,0,0,2.67.8c1.47,0,2.16-.73,2.16-1.65s-.57-1.5-2.07-2.05c-2-.71-2.94-1.82-2.94-3.15,0-1.79,1.45-3.27,3.84-3.27a5.53,5.53,0,0,1,2.74.7l-.51,1.47a4.3,4.3,0,0,0-2.28-.65c-1.19,0-1.86.69-1.86,1.52s.67,1.33,2.12,1.89c1.93.73,2.92,1.7,2.92,3.35,0,2-1.52,3.34-4.16,3.34a6.35,6.35,0,0,1-3.13-.76Z"/><path class="cls-6" d="M117,307.49l-.16-1.4h-.07a4.14,4.14,0,0,1-3.4,1.65,3.17,3.17,0,0,1-3.4-3.2c0-2.69,2.39-4.16,6.69-4.13v-.23a2.3,2.3,0,0,0-2.53-2.58,5.53,5.53,0,0,0-2.9.83l-.46-1.34a7,7,0,0,1,3.66-1c3.4,0,4.23,2.33,4.23,4.56v4.16a16.57,16.57,0,0,0,.18,2.67Zm-.29-5.68c-2.21-.05-4.72.34-4.72,2.5a1.8,1.8,0,0,0,1.91,1.94,2.76,2.76,0,0,0,2.69-1.87,2,2,0,0,0,.12-.64Z"/><path class="cls-6" d="M122.27,307.49V297.9H120.7v-1.54h1.57v-.53a5.24,5.24,0,0,1,1.29-3.89,3.89,3.89,0,0,1,2.71-1,4.7,4.7,0,0,1,1.72.32l-.27,1.56a3.19,3.19,0,0,0-1.29-.25c-1.72,0-2.16,1.52-2.16,3.22v.6H127v1.54h-2.69v9.59Z"/><path class="cls-6" d="M129.79,302.29a3.56,3.56,0,0,0,3.82,3.86,7.35,7.35,0,0,0,3.08-.57L137,307a9,9,0,0,1-3.7.69c-3.43,0-5.47-2.26-5.47-5.61s2-6,5.22-6c3.63,0,4.6,3.2,4.6,5.25a8.31,8.31,0,0,1-.07.94Zm5.93-1.45c0-1.29-.53-3.29-2.8-3.29-2,0-2.95,1.89-3.11,3.29Z"/><path class="cls-6" d="M142.81,293.16v3.2h2.89v1.54h-2.89v6c0,1.38.39,2.16,1.51,2.16a4.54,4.54,0,0,0,1.18-.14l.09,1.52a4.94,4.94,0,0,1-1.79.28,2.81,2.81,0,0,1-2.19-.85,4.16,4.16,0,0,1-.78-2.9V297.9h-1.72v-1.54h1.72v-2.67Z"/><path class="cls-6" d="M149.11,296.36l2.44,6.57c.25.74.52,1.61.71,2.28h0c.21-.67.44-1.52.72-2.32l2.21-6.53h2.13l-3,7.93c-1.45,3.82-2.44,5.77-3.82,7a5.53,5.53,0,0,1-2.48,1.31l-.51-1.7a5.33,5.33,0,0,0,1.77-1,6.21,6.21,0,0,0,1.7-2.25,1.35,1.35,0,0,0,.17-.49,2,2,0,0,0-.14-.53l-4.12-10.25Z"/><path class="cls-6" d="M157.18,310.32a32.5,32.5,0,0,0,1.38-5.5l2.26-.23a27.59,27.59,0,0,1-2.19,5.59Z"/><path class="cls-6" d="M168.5,291.16h2v6.95h0a3.69,3.69,0,0,1,1.45-1.43,4.19,4.19,0,0,1,2.07-.58c1.49,0,3.88.92,3.88,4.77v6.62h-2v-6.4c0-1.79-.67-3.31-2.58-3.31a2.9,2.9,0,0,0-2.71,2,2.32,2.32,0,0,0-.14,1v6.72h-2Z"/><path class="cls-6" d="M181.88,296.36l2.44,6.57c.25.74.53,1.61.71,2.28h.05c.21-.67.44-1.52.71-2.32l2.21-6.53h2.14l-3,7.93c-1.44,3.82-2.43,5.77-3.81,7a5.5,5.5,0,0,1-2.49,1.31l-.5-1.7a5.53,5.53,0,0,0,1.77-1,6.21,6.21,0,0,0,1.7-2.25,1.51,1.51,0,0,0,.16-.49,2,2,0,0,0-.14-.53l-4.11-10.25Z"/><path class="cls-6" d="M201.52,296.36c0,.8-.09,1.7-.09,3.06v6.46c0,2.55-.5,4.11-1.58,5.08a5.93,5.93,0,0,1-4,1.33,7.12,7.12,0,0,1-3.7-.92l.5-1.54a6.3,6.3,0,0,0,3.27.88c2.07,0,3.58-1.08,3.58-3.89v-1.24h0a4,4,0,0,1-3.54,1.86c-2.76,0-4.74-2.34-4.74-5.43,0-3.77,2.46-5.91,5-5.91a3.73,3.73,0,0,1,3.48,1.94h0l.09-1.68Zm-2.09,4.39a3,3,0,0,0-.11-.92,2.92,2.92,0,0,0-2.83-2.14c-1.93,0-3.31,1.63-3.31,4.21,0,2.18,1.1,4,3.29,4a3,3,0,0,0,2.8-2.07,3.33,3.33,0,0,0,.16-1.08Z"/><path class="cls-6" d="M207.09,293.23a1.26,1.26,0,0,1-2.51,0,1.23,1.23,0,0,1,1.27-1.26A1.2,1.2,0,0,1,207.09,293.23Zm-2.25,14.26V296.36h2v11.13Z"/><path class="cls-6" d="M211.53,302.29a3.56,3.56,0,0,0,3.82,3.86,7.35,7.35,0,0,0,3.08-.57l.34,1.45a9,9,0,0,1-3.7.69c-3.42,0-5.47-2.26-5.47-5.61s2-6,5.22-6c3.63,0,4.6,3.2,4.6,5.25a8.31,8.31,0,0,1-.07.94Zm5.93-1.45c0-1.29-.53-3.29-2.8-3.29-2,0-2.95,1.89-3.11,3.29Z"/><path class="cls-6" d="M222.11,299.37c0-1.15,0-2.09-.09-3h1.79l.12,1.84h0a4.09,4.09,0,0,1,3.68-2.1c1.54,0,3.93.92,3.93,4.74v6.65h-2v-6.42c0-1.79-.67-3.29-2.57-3.29a2.89,2.89,0,0,0-2.72,2.07,3,3,0,0,0-.14.95v6.69h-2Z"/><path class="cls-6" d="M236.19,302.29a3.55,3.55,0,0,0,3.81,3.86,7.32,7.32,0,0,0,3.08-.57l.35,1.45a9,9,0,0,1-3.7.69c-3.43,0-5.48-2.26-5.48-5.61s2-6,5.22-6c3.64,0,4.6,3.2,4.6,5.25a6.46,6.46,0,0,1-.07.94Zm5.93-1.45c0-1.29-.53-3.29-2.81-3.29-2,0-2.94,1.89-3.1,3.29Z"/><path class="cls-6" d="M258,307.49l-.16-1.4h-.07a4.15,4.15,0,0,1-3.4,1.65,3.18,3.18,0,0,1-3.41-3.2c0-2.69,2.39-4.16,6.69-4.13v-.23a2.3,2.3,0,0,0-2.53-2.58,5.49,5.49,0,0,0-2.89.83l-.46-1.34a7,7,0,0,1,3.65-1c3.41,0,4.23,2.33,4.23,4.56v4.16a15.43,15.43,0,0,0,.19,2.67Zm-.3-5.68c-2.21-.05-4.71.34-4.71,2.5a1.79,1.79,0,0,0,1.9,1.94,2.76,2.76,0,0,0,2.69-1.87,2,2,0,0,0,.12-.64Z"/><path class="cls-6" d="M263.1,299.37c0-1.15,0-2.09-.1-3h1.8l.11,1.84h0a4.09,4.09,0,0,1,3.68-2.1c1.54,0,3.93.92,3.93,4.74v6.65h-2v-6.42c0-1.79-.67-3.29-2.58-3.29a2.88,2.88,0,0,0-2.71,2.07,2.75,2.75,0,0,0-.14.95v6.69h-2Z"/><path class="cls-6" d="M285.66,291.16v13.45c0,1,0,2.12.09,2.88h-1.82l-.09-1.93h0a4.11,4.11,0,0,1-3.79,2.18c-2.69,0-4.76-2.28-4.76-5.66,0-3.7,2.28-6,5-6a3.73,3.73,0,0,1,3.36,1.71h0v-6.65Zm-2,9.73a3.46,3.46,0,0,0-.09-.85,3,3,0,0,0-2.92-2.35c-2.09,0-3.33,1.84-3.33,4.3,0,2.26,1.1,4.12,3.28,4.12a3,3,0,0,0,3-2.42,3.42,3.42,0,0,0,.09-.87Z"/><path class="cls-6" d="M294.26,291.16h2v6.95h.05a3.69,3.69,0,0,1,1.45-1.43,4.22,4.22,0,0,1,2.07-.58c1.49,0,3.88.92,3.88,4.77v6.62h-2v-6.4c0-1.79-.67-3.31-2.57-3.31a2.91,2.91,0,0,0-2.72,2,2.49,2.49,0,0,0-.14,1v6.72h-2Z"/><path class="cls-6" d="M308.34,302.29a3.55,3.55,0,0,0,3.81,3.86,7.32,7.32,0,0,0,3.08-.57l.35,1.45a9,9,0,0,1-3.7.69c-3.43,0-5.48-2.26-5.48-5.61s2-6,5.22-6c3.64,0,4.6,3.2,4.6,5.25a6.46,6.46,0,0,1-.07.94Zm5.93-1.45c0-1.29-.53-3.29-2.81-3.29-2,0-2.94,1.89-3.1,3.29Z"/><path class="cls-6" d="M325.08,307.49l-.16-1.4h-.07a4.15,4.15,0,0,1-3.4,1.65,3.18,3.18,0,0,1-3.41-3.2c0-2.69,2.39-4.16,6.69-4.13v-.23a2.3,2.3,0,0,0-2.53-2.58,5.49,5.49,0,0,0-2.89.83l-.46-1.34a7,7,0,0,1,3.65-1c3.41,0,4.23,2.33,4.23,4.56v4.16a15.43,15.43,0,0,0,.19,2.67Zm-.3-5.68c-2.21-.05-4.71.34-4.71,2.5a1.79,1.79,0,0,0,1.9,1.94,2.76,2.76,0,0,0,2.69-1.87,2,2,0,0,0,.12-.64Z"/><path class="cls-6" d="M330.19,291.16h2v16.33h-2Z"/><path class="cls-6" d="M338.24,293.16v3.2h2.89v1.54h-2.89v6c0,1.38.39,2.16,1.51,2.16a4.54,4.54,0,0,0,1.18-.14l.09,1.52a5,5,0,0,1-1.8.28,2.8,2.8,0,0,1-2.18-.85,4.11,4.11,0,0,1-.78-2.9V297.9h-1.73v-1.54h1.73v-2.67Z"/><path class="cls-6" d="M343.59,291.16h2v6.95h0a3.76,3.76,0,0,1,1.45-1.43,4.22,4.22,0,0,1,2.07-.58c1.5,0,3.89.92,3.89,4.77v6.62h-2v-6.4c0-1.79-.66-3.31-2.57-3.31a2.89,2.89,0,0,0-2.71,2,2.32,2.32,0,0,0-.14,1v6.72h-2Z"/><path class="cls-6" d="M356.06,306.29a1.36,1.36,0,0,1,1.38-1.45,1.45,1.45,0,1,1-1.38,1.45Z"/></g></g></g></svg>